<?xml version="1.0" encoding="UTF-8"?>
<svg width="27px" height="27px" viewBox="0 0 27 27" version="1.1" xmlns="http://www.w3.org/2000/svg" xmlns:xlink="http://www.w3.org/1999/xlink">
    <title>square-github-brands-solid-full</title>
    <g id="square-github-brands-solid-full" stroke="none" fill="none" fill-rule="nonzero">
        <path d="M22.95,6.75 C22.95,5.26078125 21.7392187,4.05 20.25,4.05 L6.75,4.05 C5.26078125,4.05 4.05,5.26078125 4.05,6.75 L4.05,20.25 C4.05,21.7392187 5.26078125,22.95 6.75,22.95 L20.25,22.95 C21.7392187,22.95 22.95,21.7392187 22.95,20.25 L22.95,6.75 Z M15.2634375,19.8998437 C15.2634375,19.8239062 15.2634375,19.6467187 15.2676562,19.4104687 C15.271875,18.9295312 15.271875,18.1954687 15.271875,17.566875 C15.271875,16.90875 15.0525,16.4910937 14.7951562,16.2717187 C16.3560937,16.09875 18.0014062,15.8835937 18.0014062,13.1878125 C18.0014062,12.42 17.7271875,12.0360937 17.28,11.5425 C17.3517187,11.3610937 17.5921875,10.614375 17.2082812,9.6440625 C16.621875,9.46265625 15.2803125,10.3992187 15.2803125,10.3992187 C14.158125,10.0828125 12.8925,10.0828125 11.7703125,10.3992187 C11.7703125,10.3992187 10.42875,9.46265625 9.84234375,9.6440625 C9.4584375,10.6101562 9.6946875,11.356875 9.770625,11.5425 C9.3234375,12.0360937 9.1125,12.42 9.1125,13.1878125 C9.1125,15.8709375 10.6860937,16.09875 12.2470312,16.2717187 C12.0445312,16.453125 11.863125,16.7653125 11.7998437,17.2125 C11.3990625,17.3939062 10.3739062,17.7060937 9.7621875,16.6260937 C9.37828125,15.9595312 8.68640625,15.9046875 8.68640625,15.9046875 C8.00296875,15.89625 8.64,16.335 8.64,16.335 C9.095625,16.5459375 9.41625,17.3559375 9.41625,17.3559375 C9.82546875,18.6089062 11.7829687,18.1870312 11.7829687,18.1870312 C11.7829687,18.5667187 11.7871875,19.1025 11.7871875,19.4779687 C11.7871875,19.6804687 11.7914062,19.8407812 11.7914062,19.8998437 C11.7914062,20.08125 11.6648437,20.300625 11.30625,20.2373437 C8.521875,19.305 6.5728125,16.655625 6.5728125,13.5590625 C6.5728125,9.68625 9.534375,6.74578125 13.4071875,6.74578125 C17.28,6.74578125 20.418757,9.68625 20.418757,13.5590625 C20.4229687,16.655625 18.5329687,19.3092187 15.7485937,20.2373437 C15.3942187,20.300625 15.2634375,20.08125 15.2634375,19.8998437 Z M11.4454687,17.5879688 C11.4370313,17.5246875 11.491875,17.4698438 11.5720313,17.4529688 C11.6521875,17.4445313 11.728125,17.4782813 11.7365625,17.533125 C11.7492188,17.5879688 11.694375,17.6428125 11.61,17.6596875 C11.5298438,17.6765625 11.4539062,17.6428125 11.4454687,17.5879688 Z M11.0615625,17.7229687 C10.96875,17.7314062 10.9054688,17.685 10.9054688,17.6217187 C10.9054688,17.566875 10.96875,17.5204687 11.053125,17.5204687 C11.1332812,17.5120312 11.2092187,17.5584375 11.2092187,17.6217187 C11.2092187,17.6765625 11.1459375,17.7229687 11.0615625,17.7229687 Z M10.4582813,17.6301562 C10.378125,17.6132812 10.3232813,17.55 10.3401563,17.4951562 C10.3570313,17.4403125 10.4414063,17.415 10.513125,17.431875 C10.5975,17.4571875 10.6523438,17.5204687 10.63125,17.5753125 C10.614375,17.6301562 10.53,17.6554687 10.4582813,17.6301562 Z M9.9309375,17.3221875 C9.86765625,17.2673438 9.85078125,17.1871875 9.89296875,17.1492188 C9.9309375,17.1028125 10.0110937,17.11125 10.074375,17.1745313 C10.1292187,17.229375 10.1503125,17.31375 10.1123437,17.3475 C10.074375,17.3939063 9.99421875,17.3854688 9.9309375,17.3221875 Z M9.57234375,16.9003125 C9.5259375,16.8370312 9.5259375,16.7653125 9.57234375,16.7357812 C9.61875,16.6978125 9.69046875,16.7273437 9.7284375,16.790625 C9.77484375,16.8539062 9.77484375,16.9298437 9.7284375,16.9635937 C9.69046875,16.9889062 9.61875,16.9635937 9.57234375,16.9003125 Z M9.3065625,16.5290625 C9.26015625,16.4742188 9.25171875,16.4109375 9.2896875,16.3814063 C9.32765625,16.3434375 9.3909375,16.3645313 9.43734375,16.4067188 C9.48375,16.4615625 9.4921875,16.5248438 9.45421875,16.554375 C9.41625,16.5923438 9.35296875,16.57125 9.3065625,16.5290625 Z M9.0534375,16.2590625 C8.99859375,16.23375 8.97328125,16.1873438 8.99015625,16.149375 C9.00703125,16.1240625 9.0534375,16.1114063 9.10828125,16.1325 C9.163125,16.1620313 9.1884375,16.2084375 9.1715625,16.2421875 C9.1546875,16.2801563 9.09984375,16.2885938 9.0534375,16.2590625 Z" id="Shape" fill="#A8E4FF"></path>
    </g>
</svg>