<?xml version="1.0" encoding="UTF-8"?>
<svg width="30px" height="30px" viewBox="0 0 30 30" version="1.1" xmlns="http://www.w3.org/2000/svg" xmlns:xlink="http://www.w3.org/1999/xlink">
    <title>square-github-brands-solid-full (1)</title>
    <g id="square-github-brands-solid-full-(1)" stroke="none" fill="none" fill-rule="nonzero">
        <path d="M25.5555556,7.46031746 C25.5555556,5.796875 24.203125,4.44444444 22.5396825,4.44444444 L7.46031746,4.44444444 C5.796875,4.44444444 4.44444444,5.796875 4.44444444,7.46031746 L4.44444444,22.5396825 C4.44444444,24.203125 5.796875,25.5555556 7.46031746,25.5555556 L22.5396825,25.5555556 C24.203125,25.5555556 25.5555556,24.203125 25.5555556,22.5396825 L25.5555556,7.46031746 Z M16.9697421,22.1485615 C16.9697421,22.0637401 16.9697421,21.8658234 16.9744544,21.6019345 C16.9791667,21.0647321 16.9791667,20.2447917 16.9791667,19.5426587 C16.9791667,18.8075397 16.734127,18.3410218 16.4466766,18.0959821 C18.1902282,17.9027778 20.0280258,17.6624504 20.0280258,14.6512897 C20.0280258,13.7936508 19.7217262,13.3648313 19.2222222,12.8134921 C19.3023313,12.6108631 19.5709325,11.7767857 19.1421131,10.6929563 C18.4871032,10.4903274 16.9885913,11.5364583 16.9885913,11.5364583 C15.735119,11.1830357 14.3214286,11.1830357 13.0679563,11.5364583 C13.0679563,11.5364583 11.5694444,10.4903274 10.9144345,10.6929563 C10.4856151,11.7720734 10.749504,12.6061508 10.8343254,12.8134921 C10.3348214,13.3648313 10.0992063,13.7936508 10.0992063,14.6512897 C10.0992063,17.6483135 11.8568948,17.9027778 13.6004464,18.0959821 C13.374256,18.2986111 13.171627,18.6473214 13.1009425,19.1468254 C12.6532738,19.3494544 11.5081845,19.6981647 10.8249008,18.4918155 C10.3960813,17.7472718 9.62326389,17.6860119 9.62326389,17.6860119 C8.85987103,17.6765873 9.57142857,18.1666667 9.57142857,18.1666667 C10.0803571,18.4022817 10.4384921,19.3070437 10.4384921,19.3070437 C10.8955853,20.7065972 13.0820933,20.2353671 13.0820933,20.2353671 C13.0820933,20.6594742 13.0868056,21.2579365 13.0868056,21.6773313 C13.0868056,21.9035218 13.0915179,22.0825893 13.0915179,22.1485615 C13.0915179,22.3511905 12.9501488,22.5962302 12.5496032,22.5255456 C9.43948413,21.484127 7.26240079,18.5248016 7.26240079,15.0659722 C7.26240079,10.7400794 10.5704365,7.45560516 14.8963294,7.45560516 C19.2222222,7.45560516 22.7281825,10.7400794 22.7281825,15.0659722 C22.7328869,18.5248016 20.6217758,21.4888393 17.5116567,22.5255456 C17.1158234,22.5962302 16.9697421,22.3511905 16.9697421,22.1485615 Z M12.7051091,19.5662202 C12.6956845,19.4955357 12.7569444,19.4342758 12.8464782,19.4154266 C12.9360119,19.406002 13.0208333,19.4437004 13.0302579,19.5049603 C13.0443948,19.5662202 12.9831349,19.6274802 12.8888889,19.6463294 C12.7993552,19.6651786 12.7145337,19.6274802 12.7051091,19.5662202 Z M12.2762897,19.7170139 C12.172619,19.7264385 12.1019345,19.6746032 12.1019345,19.6039187 C12.1019345,19.5426587 12.172619,19.4908234 12.2668651,19.4908234 C12.3563988,19.4813988 12.4412202,19.5332341 12.4412202,19.6039187 C12.4412202,19.6651786 12.3705357,19.7170139 12.2762897,19.7170139 Z M11.6024306,19.6133433 C11.5128968,19.594494 11.4516369,19.5238095 11.4704861,19.4625496 C11.4893353,19.4012897 11.5835813,19.3730159 11.6636905,19.3918651 C11.7579365,19.4201389 11.8191964,19.4908234 11.7956349,19.5520833 C11.7767857,19.6133433 11.6825397,19.6416171 11.6024306,19.6133433 Z M11.0133929,19.2693452 C10.9427083,19.2080853 10.9238591,19.1185516 10.9709821,19.0761409 C11.0133929,19.0243056 11.1029266,19.0337302 11.1736111,19.1044147 C11.234871,19.1656746 11.2584325,19.2599206 11.2160218,19.297619 C11.1736111,19.3494544 11.0840774,19.3400298 11.0133929,19.2693452 Z M10.6128472,18.7981151 C10.5610119,18.7274306 10.5610119,18.6473214 10.6128472,18.6143353 C10.6646825,18.5719246 10.7447917,18.6049107 10.7872024,18.6755952 C10.8390377,18.7462798 10.8390377,18.8311012 10.7872024,18.8687996 C10.7447917,18.8970734 10.6646825,18.8687996 10.6128472,18.7981151 Z M10.3159722,18.3834325 C10.2641369,18.3221726 10.2547123,18.2514881 10.297123,18.218502 C10.3395337,18.1760913 10.4102183,18.1996528 10.4620536,18.2467758 C10.5138889,18.3080357 10.5233135,18.3787202 10.4809028,18.4117063 C10.4384921,18.4541171 10.3678075,18.4305556 10.3159722,18.3834325 Z M10.0332341,18.0818452 C9.97197421,18.0535714 9.9437004,18.0017361 9.9625496,17.9593254 C9.98139881,17.9310516 10.0332341,17.9169147 10.094494,17.9404762 C10.155754,17.9734623 10.1840278,18.0252976 10.1651786,18.062996 C10.1463294,18.1054067 10.0850694,18.1148313 10.0332341,18.0818452 Z" id="Shape" fill="#FFF1A8"></path>
    </g>
</svg>