<?xml version="1.0" encoding="UTF-8"?>
<svg width="1440px" height="733px" viewBox="0 0 1440 733" version="1.1" xmlns="http://www.w3.org/2000/svg" xmlns:xlink="http://www.w3.org/1999/xlink">
    <title>MacBook Air 13"</title>
    <g id="Page-1" stroke="none" stroke-width="1" fill="none" fill-rule="evenodd">
        <g id="MacBook-Air-13&quot;" transform="translate(0, -49)">
            <g id="hero" transform="translate(34, 62)">
                <g id="name" transform="translate(-0, 0)" fill-rule="nonzero">
                    <g id="first-name" transform="translate(-0, 0)">
                        <g id="J" fill="#C2FDFC">
                            <path d="M396.72,111.124704 C398.24,114.923839 399.285,118.912931 399.855,123.09198 C400.425,127.271029 400.71,131.070164 400.71,134.489386 C400.71,146.266705 397.955,157.284197 392.445,167.541862 C386.935,177.799527 379.81,186.632516 371.07,194.04083 C362.33,201.449143 352.26,207.337803 340.86,211.706808 C329.46,216.075814 317.68,218.260317 305.52,218.260317 C281.2,218.260317 262.295,212.371657 248.805,200.594338 C235.315,188.817019 228.57,173.430521 228.57,154.434845 C228.57,133.919515 234.84,116.158558 247.38,101.151974 C259.92,86.1453904 276.26,73.3233091 296.4,62.6857306 C316.54,52.0481521 339.245,43.4051195 364.515,36.7566329 C389.785,30.1081464 414.96,24.8843355 440.04,21.0852003 C465.12,17.2860651 488.965,14.7216489 511.575,13.3919515 C534.185,12.0622542 553.09,11.3974056 568.29,11.3974056 C583.87,11.3974056 598.025,9.49783797 610.755,5.69870278 C623.485,1.89956759 633.65,0 641.25,0 C643.15,0 645.24,0.474891899 647.52,1.4246757 C649.8,2.37445949 650.94,4.17904871 650.94,6.83844334 C650.94,9.49783797 649.23,11.6823407 645.81,13.3919515 C642.39,15.1015624 638.115,16.2413029 632.985,16.8111732 C627.855,17.3810435 622.155,17.760957 615.885,17.9509138 C609.615,18.1408705 603.82,18.2358489 598.5,18.2358489 C587.1,18.2358489 574.37,24.7893571 560.31,37.8963735 C546.25,51.0033899 531.62,68.0994982 516.42,89.1846985 C501.22,110.269899 485.735,133.824537 469.965,159.848613 C454.195,185.872689 438.805,211.706808 423.795,237.350971 C408.785,262.995133 394.63,287.309599 381.33,310.294366 C368.03,333.279134 356.25,351.989875 345.99,366.426589 L347.13,367.566329 C369.55,360.727886 388.93,353.699486 405.27,346.481129 C421.61,339.262772 436.43,330.904675 449.73,321.406837 C463.03,311.908999 475.38,300.891507 486.78,288.354361 C498.18,275.817215 509.77,261.000587 521.55,243.904479 L526.11,246.75383 C514.33,264.229852 502.55,279.521371 490.77,292.628388 C478.99,305.735404 465.975,317.322767 451.725,327.390475 C437.475,337.458183 421.23,346.386151 402.99,354.174378 C384.75,361.962605 363.28,369.27594 338.58,376.114384 C323.76,398.529281 307.61,421.039157 290.13,443.644012 C272.65,466.248866 253.555,486.669218 232.845,504.905067 C212.135,523.140915 189.81,537.957543 165.87,549.354948 C141.93,560.752354 116.28,566.451057 88.92,566.451057 C77.9,566.451057 67.07,564.931402 56.43,561.892094 C45.79,558.852786 36.29,554.388802 27.93,548.500143 C19.57,542.611483 12.825,535.488105 7.695,527.130007 C2.565,518.77191 0,509.274072 0,498.636493 C0,481.920299 4.085,467.958477 12.255,456.751028 C20.425,445.543579 31.73,436.235698 46.17,428.827384 C60.61,421.419071 77.615,415.435433 97.185,410.876471 C116.755,406.317508 137.845,402.233438 160.455,398.62426 C183.065,395.015081 206.72,391.59586 231.42,388.366595 C256.12,385.13733 280.63,381.053259 304.95,376.114384 C317.11,357.118708 329.555,336.318443 342.285,313.713588 C355.015,291.108734 368.315,268.123966 382.185,244.759284 C396.055,221.394603 410.4,198.219878 425.22,175.235111 C440.04,152.250343 455.715,130.785229 472.245,110.839769 C488.775,90.8943094 506.065,72.9433956 524.115,56.9870278 C542.165,41.03066 561.26,28.4935139 581.4,19.3755895 L581.4,18.2358489 C565.44,18.2358489 546.345,18.9956759 524.115,20.51533 C501.885,22.0349841 478.705,24.6943787 454.575,28.4935139 C430.445,32.2926491 406.505,37.51646 382.755,44.1649466 C359.005,50.8134331 337.725,59.4564657 318.915,70.0940442 C300.105,80.7316227 284.905,93.553704 273.315,108.560288 C261.725,123.566872 255.93,141.137872 255.93,161.273289 C255.93,174.570262 259.92,186.252603 267.9,196.320311 C275.88,206.388019 288.42,211.421873 305.52,211.421873 C316.92,211.421873 327.94,209.427327 338.58,205.438235 C349.22,201.449143 358.625,195.940397 366.795,188.911997 C374.965,181.883597 381.52,173.620478 386.46,164.12264 C391.4,154.624802 393.87,144.557094 393.87,133.919515 C393.87,127.460986 392.73,120.052672 390.45,111.694575 L396.72,111.124704 Z M87.78,559.612613 C111.34,559.612613 133.855,553.34404 155.325,540.806894 C176.795,528.269748 196.65,512.88325 214.89,494.647402 C233.13,476.411553 249.47,457.130942 263.91,436.805568 C278.35,416.480195 290.32,398.719238 299.82,383.522697 C277.4,388.081659 255.075,391.880795 232.845,394.920103 C210.615,397.959411 189.43,401.093697 169.29,404.322962 C149.15,407.552227 130.435,411.351363 113.145,415.720368 C95.855,420.089373 80.845,425.788076 68.115,432.816476 C55.385,439.844876 45.41,448.772844 38.19,459.600379 C30.97,470.427915 27.36,483.819866 27.36,499.776234 C27.36,521.051391 33.155,536.34291 44.745,545.650791 C56.335,554.958673 70.68,559.612613 87.78,559.612613 Z" id="Shape"></path>
                        </g>
                        <g id="OANNA" transform="translate(383.8773, 178.1526)" fill="#FFF1A8">
                            <path d="M0,99.9989198 C0,68.4665419 8.78797051,43.9169608 26.3639115,26.3501765 C43.9398526,8.78339216 68.4143504,0 99.7874052,0 C131.951377,0 156.733454,8.6296828 174.133636,25.8890484 C191.533817,43.148414 200.233908,67.3247009 200.233908,98.4179092 C200.233908,120.991227 196.433111,139.502226 188.831516,153.950906 C181.229922,168.399586 170.244959,179.642328 155.876627,187.679132 C141.508295,195.715936 123.602805,199.734338 102.160157,199.734338 C80.3659903,199.734338 62.3286809,196.264898 48.0482288,189.326018 C33.7677767,182.387138 22.1896255,171.407898 13.3137753,156.388297 C4.43792511,141.368697 0,122.572238 0,99.9989198 Z M59.7142596,100.262422 C59.7142596,119.761552 63.3392975,133.771063 70.5893731,142.290953 C77.8394488,150.810843 87.7039457,155.070789 100.182864,155.070789 C113.013301,155.070789 122.943707,150.898677 129.974084,142.554455 C137.00446,134.210232 140.519648,119.234549 140.519648,97.6274039 C140.519648,79.4457821 136.850671,66.1609015 129.512715,57.772762 C122.17476,49.3846224 112.222383,45.1905527 99.6555856,45.1905527 C87.616066,45.1905527 77.9492984,49.4504979 70.6552829,57.9703883 C63.3612674,66.4902787 59.7142596,80.5876231 59.7142596,100.262422 Z" id="Shape"></path>
                            <path d="M310.310993,164.556852 L242.292101,164.556852 L232.932912,196.440566 L171.900457,196.440566 L244.533034,3.29377206 L309.651895,3.29377206 L382.284471,196.440566 L319.802001,196.440566 L310.310993,164.556852 Z M297.788135,122.791822 L276.433367,53.3591074 L255.210418,122.791822 L297.788135,122.791822 Z" id="Shape"></path>
                            <polygon id="Path" points="370.033007 3.29377206 425.792679 3.29377206 498.557075 110.143738 498.557075 3.29377206 554.844026 3.29377206 554.844026 196.440566 498.557075 196.440566 426.188138 90.3811054 426.188138 196.440566 370.033007 196.440566"></polygon>
                            <polygon id="Path" points="563.156413 3.29377206 618.916086 3.29377206 691.680481 110.143738 691.680481 3.29377206 747.967433 3.29377206 747.967433 196.440566 691.680481 196.440566 619.311544 90.3811054 619.311544 196.440566 563.156413 196.440566"></polygon>
                            <path d="M872.14921,164.556852 L804.130318,164.556852 L794.77113,196.440566 L733.738674,196.440566 L806.371251,3.29377206 L871.490112,3.29377206 L944.122688,196.440566 L881.640218,196.440566 L872.14921,164.556852 Z M859.626352,122.791822 L838.271584,53.3591074 L817.048635,122.791822 L859.626352,122.791822 Z" id="Shape"></path>
                        </g>
                    </g>
                    <g id="last-name" transform="translate(669.5359, 286.3997)">
                        <g id="L" fill="#C2FDFC">
                            <path d="M297.158203,333.017578 L285.820312,358.59375 C280.722656,359.472656 276.240234,359.912109 272.373047,359.912109 C264.638672,359.912109 254.179687,358.769531 240.996094,356.484375 C231.503906,354.726562 222.055664,352.573242 212.651367,350.024414 C203.24707,347.475586 191.074219,343.828125 176.132812,339.082031 C164.003906,335.214844 151.962891,331.611328 140.009766,328.271484 C129.111328,338.642578 116.279297,346.68457 101.513672,352.397461 C86.7480469,358.110352 71.9824219,360.966797 57.2167969,360.966797 C39.9902344,360.966797 26.1474609,357.84668 15.6884766,351.606445 C5.22949219,345.366211 0,337.148438 0,326.953125 C0,316.054688 5.88867188,307.529297 17.6660156,301.376953 C29.4433594,295.224609 45.3515625,292.148438 65.390625,292.148438 C88.2421875,292.148438 113.818359,296.279297 142.119141,304.541016 C147.392578,295.400391 151.655273,285.820312 154.907227,275.800781 C158.15918,265.78125 161.630859,251.894531 165.322266,234.140625 L184.042969,146.074219 C189.492188,120.585938 194.545898,100.722656 199.204102,86.484375 C203.862305,72.2460938 209.267578,59.9414063 215.419922,49.5703125 C221.220703,39.7265625 227.900391,31.0253906 235.458984,23.4667969 C243.017578,15.9082031 250.839844,10.1074219 258.925781,6.06445312 C267.011719,2.02148438 274.921875,0 282.65625,0 C291.09375,0 298.476562,1.97753906 304.804688,5.93261719 C311.132812,9.88769531 315.922852,15.6005859 319.174805,23.0712891 C322.426758,30.5419922 324.052734,39.1992188 324.052734,49.0429688 C324.052734,58.0078125 322.382812,69.3457031 319.042969,83.0566406 C315.703125,96.7675781 311.396484,109.423828 306.123047,121.025391 L281.601562,124.716797 C288.984375,111.005859 295.136719,96.1962891 300.058594,80.2880859 C304.980469,64.3798828 307.441406,50.8886719 307.441406,39.8144531 C307.441406,29.4433594 305.244141,21.4453125 300.849609,15.8203125 C296.455078,10.1953125 290.039062,7.3828125 281.601562,7.3828125 C263.496094,7.3828125 248.378906,19.3359375 236.25,43.2421875 C232.382813,50.9765625 229.21875,58.8427734 226.757812,66.8408203 C224.296875,74.8388672 221.044922,88.0664062 217.001953,106.523438 L193.535156,216.474609 C188.4375,240.029297 183.164062,258.75 177.714844,272.636719 C172.265625,286.523438 165.322266,298.740234 156.884766,309.287109 L163.476562,311.396484 C190.019531,320.185547 211.333008,326.469727 227.416992,330.249023 C243.500977,334.02832 257.431641,335.917969 269.208984,335.917969 C277.470703,335.917969 286.787109,334.951172 297.158203,333.017578 Z M127.617188,324.316406 L121.289062,322.470703 C89.8242188,312.978516 65.7421875,308.232422 49.0429688,308.232422 C22.5,308.232422 9.22851562,315.175781 9.22851562,329.0625 C9.22851562,336.09375 13.7988281,342.026367 22.9394531,346.860352 C32.0800781,351.694336 43.59375,354.111328 57.4804688,354.111328 C70.8398438,354.111328 83.671875,351.474609 95.9765625,346.201172 C108.28125,340.927734 118.828125,333.632812 127.617188,324.316406 Z" id="Shape"></path>
                        </g>
                        <g id="AU" transform="translate(284.2984, 166.0488)" fill="#FFF1A8">
                            <path d="M138.427734,161.367188 L70.4003906,161.367188 L61.0400391,193.271484 L0,193.271484 L72.6416016,0 L137.768555,0 L210.410156,193.271484 L147.919922,193.271484 L138.427734,161.367188 Z M125.90332,119.575195 L104.545898,50.0976562 L83.3203125,119.575195 L125.90332,119.575195 Z" id="Shape"></path>
                            <path d="M314.30463,0 L373.894474,0 L373.894474,115.224609 C373.894474,126.650391 372.114689,137.438965 368.555118,147.590332 C364.995548,157.741699 359.414493,166.618652 351.811954,174.221191 C344.209415,181.82373 336.233341,187.163086 327.883732,190.239258 C316.282169,194.545898 302.351505,196.699219 286.091739,196.699219 C276.687443,196.699219 266.426212,196.040039 255.308048,194.72168 C244.189884,193.40332 234.89545,190.788574 227.424747,186.877441 C219.954044,182.966309 213.120548,177.407227 206.924259,170.200195 C200.72797,162.993164 196.487247,155.566406 194.202091,147.919922 C190.510685,135.615234 188.664982,124.716797 188.664982,115.224609 L188.664982,0 L248.254825,0 L248.254825,117.993164 C248.254825,128.540039 251.177189,136.779785 257.021915,142.712402 C262.866642,148.64502 270.974552,151.611328 281.345646,151.611328 C291.628849,151.611328 299.692814,148.688965 305.53754,142.844238 C311.382267,136.999512 314.30463,128.71582 314.30463,117.993164 L314.30463,0 Z" id="Path"></path>
                        </g>
                    </g>
                </g>
                <g id="tags" transform="translate(411.545, 140.51)" fill="#FFF1A8" fill-rule="nonzero">
                    <g id="Software-Developer" transform="translate(0, 248.1823)">
                        <path d="M0,18.06 L1.83,16.98 C3.11,19.34 4.6,20.52 6.3,20.52 C7.4,20.52 8.34,20.17 9.12,19.47 C9.9,18.77 10.29,17.9 10.29,16.86 C10.29,16.04 9.96,15.21 9.3,14.37 C8.64,13.53 7.545,12.535 6.015,11.385 C4.485,10.235 3.455,9.375 2.925,8.805 C2.395,8.235 2.005,7.625 1.755,6.975 C1.505,6.325 1.38,5.67 1.38,5.01 C1.38,3.61 1.875,2.425 2.865,1.455 C3.855,0.485 5.1,0 6.6,0 C7.78,0 8.81,0.295 9.69,0.885 C10.57,1.475 11.42,2.35 12.24,3.51 L10.5,4.86 C9.94,4.1 9.36,3.47 8.76,2.97 C8.16,2.47 7.425,2.22 6.555,2.22 C5.685,2.22 4.975,2.48 4.425,3 C3.875,3.52 3.6,4.18 3.6,4.98 C3.6,5.78 3.845,6.475 4.335,7.065 C4.825,7.655 5.935,8.59 7.665,9.87 C9.395,11.15 10.655,12.33 11.445,13.41 C12.235,14.49 12.63,15.63 12.63,16.83 C12.63,18.39 12.025,19.745 10.815,20.895 C9.605,22.045 8.2,22.62 6.6,22.62 C3.78,22.62 1.58,21.1 0,18.06 Z" id="Path"></path>
                        <path d="M14.08,14.22 C14.08,11.88 14.885,9.88 16.495,8.22 C18.105,6.56 20.065,5.73 22.375,5.73 C24.685,5.73 26.645,6.56 28.255,8.22 C29.865,9.88 30.67,11.87 30.67,14.19 C30.67,16.51 29.875,18.495 28.285,20.145 C26.695,21.795 24.73,22.62 22.39,22.62 C20.05,22.62 18.08,21.795 16.48,20.145 C14.88,18.495 14.08,16.52 14.08,14.22 Z M28.6,14.25 C28.6,12.49 27.985,10.965 26.755,9.675 C25.525,8.385 24.065,7.74 22.375,7.74 C20.685,7.74 19.23,8.385 18.01,9.675 C16.79,10.965 16.18,12.5 16.18,14.28 C16.18,16.06 16.77,17.57 17.95,18.81 C19.13,20.05 20.595,20.67 22.345,20.67 C24.095,20.67 25.575,20.045 26.785,18.795 C27.995,17.545 28.6,16.03 28.6,14.25 Z" id="Shape"></path>
                        <path d="M39.05,0.42 L39.05,2.43 C38.27,2.09 37.575,1.92 36.965,1.92 C36.355,1.92 35.96,2.115 35.78,2.505 C35.6,2.895 35.51,3.53 35.51,4.41 L35.51,6.15 L38.84,6.15 L38.84,7.89 L35.51,7.89 L35.51,22.08 L33.44,22.08 L33.44,7.89 L31.37,7.89 L31.37,6.15 L33.44,6.15 L33.44,4.08 C33.44,2.68 33.7,1.65 34.22,0.99 C34.74,0.33 35.55,0 36.65,0 C37.29,0 38.09,0.14 39.05,0.42 Z" id="Path"></path>
                        <path d="M43.77,19.56 C43.77,20.1 43.84,20.42 43.98,20.52 C44.12,20.62 44.48,20.67 45.06,20.67 L46.29,20.67 L46.29,22.41 C45.45,22.55 44.79,22.62 44.31,22.62 C43.41,22.62 42.75,22.4 42.33,21.96 C41.91,21.52 41.7,20.83 41.7,19.89 L41.7,7.89 L38.88,7.89 L38.88,6.15 L41.7,6.15 L41.7,0 L43.77,0 L43.77,6.15 L47.01,6.15 L47.01,7.89 L43.77,7.89 L43.77,19.56 Z" id="Path"></path>
                        <polygon id="Path" points="45.91 6.15 48.04 6.15 52.9 18.24 58.03 6.15 58.39 6.15 63.49 18.24 68.44 6.15 70.6 6.15 63.67 22.62 63.28 22.62 58.21 10.68 53.11 22.62 52.72 22.62"></polygon>
                        <path d="M86.87,6.15 L86.87,22.08 L84.86,22.08 L84.86,19.35 C83.04,21.53 80.96,22.62 78.62,22.62 C76.28,22.62 74.305,21.785 72.695,20.115 C71.085,18.445 70.28,16.455 70.28,14.145 C70.28,11.835 71.09,9.855 72.71,8.205 C74.33,6.555 76.27,5.73 78.53,5.73 C81.13,5.73 83.24,6.84 84.86,9.06 L84.86,6.15 L86.87,6.15 Z M84.98,14.19 C84.98,12.37 84.37,10.835 83.15,9.585 C81.93,8.335 80.435,7.71 78.665,7.71 C76.895,7.71 75.4,8.355 74.18,9.645 C72.96,10.935 72.35,12.46 72.35,14.22 C72.35,15.98 72.97,17.505 74.21,18.795 C75.45,20.085 76.935,20.73 78.665,20.73 C80.395,20.73 81.88,20.11 83.12,18.87 C84.36,17.63 84.98,16.07 84.98,14.19 Z" id="Shape"></path>
                        <path d="M88.71,6.15 L90.81,6.15 L90.81,8.46 C91.37,7.52 91.915,6.83 92.445,6.39 C92.975,5.95 93.565,5.73 94.215,5.73 C94.865,5.73 95.52,5.91 96.18,6.27 L95.1,8.01 C94.8,7.83 94.49,7.74 94.17,7.74 C93.55,7.74 92.965,8.06 92.415,8.7 C91.865,9.34 91.46,10.165 91.2,11.175 C90.94,12.185 90.81,14.02 90.81,16.68 L90.81,22.08 L88.71,22.08 L88.71,6.15 Z" id="Path"></path>
                        <path d="M109.93,16.92 L111.67,17.82 C109.95,21.02 107.41,22.62 104.05,22.62 C101.65,22.62 99.67,21.795 98.11,20.145 C96.55,18.495 95.77,16.51 95.77,14.19 C95.77,11.87 96.555,9.88 98.125,8.22 C99.695,6.56 101.635,5.73 103.945,5.73 C106.255,5.73 108.195,6.5 109.765,8.04 C111.335,9.58 112.15,11.68 112.21,14.34 L97.87,14.34 C97.93,16.26 98.535,17.805 99.685,18.975 C100.835,20.145 102.23,20.73 103.87,20.73 C106.57,20.73 108.59,19.46 109.93,16.92 Z M109.93,12.57 C109.65,11.05 108.95,9.86 107.83,9 C106.71,8.14 105.42,7.71 103.96,7.71 C100.96,7.71 99,9.33 98.08,12.57 L109.93,12.57 Z" id="Shape"></path>
                        <path d="M119.85,22.08 L119.85,0.54 L124.32,0.54 C127.38,0.54 129.625,0.765 131.055,1.215 C132.485,1.665 133.72,2.375 134.76,3.345 C135.8,4.315 136.6,5.5 137.16,6.9 C137.72,8.3 138,9.935 138,11.805 C138,13.675 137.565,15.435 136.695,17.085 C135.825,18.735 134.645,19.98 133.155,20.82 C131.665,21.66 129.52,22.08 126.72,22.08 L119.85,22.08 Z M121.92,20.04 L124.41,20.04 C127.01,20.04 128.895,19.91 130.065,19.65 C131.235,19.39 132.26,18.875 133.14,18.105 C134.02,17.335 134.69,16.4 135.15,15.3 C135.61,14.2 135.84,12.94 135.84,11.52 C135.84,10.1 135.575,8.79 135.045,7.59 C134.515,6.39 133.76,5.4 132.78,4.62 C131.8,3.84 130.645,3.315 129.315,3.045 C127.985,2.775 126.03,2.64 123.45,2.64 L121.92,2.64 L121.92,20.04 Z" id="Shape"></path>
                        <path d="M153.25,16.92 L154.99,17.82 C153.27,21.02 150.73,22.62 147.37,22.62 C144.97,22.62 142.99,21.795 141.43,20.145 C139.87,18.495 139.09,16.51 139.09,14.19 C139.09,11.87 139.875,9.88 141.445,8.22 C143.015,6.56 144.955,5.73 147.265,5.73 C149.575,5.73 151.515,6.5 153.085,8.04 C154.655,9.58 155.47,11.68 155.53,14.34 L141.19,14.34 C141.25,16.26 141.855,17.805 143.005,18.975 C144.155,20.145 145.55,20.73 147.19,20.73 C149.89,20.73 151.91,19.46 153.25,16.92 Z M153.25,12.57 C152.97,11.05 152.27,9.86 151.15,9 C150.03,8.14 148.74,7.71 147.28,7.71 C144.28,7.71 142.32,9.33 141.4,12.57 L153.25,12.57 Z" id="Shape"></path>
                        <polygon id="Path" points="155.84 6.15 158.03 6.15 163.34 18.27 168.65 6.15 170.84 6.15 163.55 22.62 163.19 22.62"></polygon>
                        <path d="M185.37,16.92 L187.11,17.82 C185.39,21.02 182.85,22.62 179.49,22.62 C177.09,22.62 175.11,21.795 173.55,20.145 C171.99,18.495 171.21,16.51 171.21,14.19 C171.21,11.87 171.995,9.88 173.565,8.22 C175.135,6.56 177.075,5.73 179.385,5.73 C181.695,5.73 183.635,6.5 185.205,8.04 C186.775,9.58 187.59,11.68 187.65,14.34 L173.31,14.34 C173.37,16.26 173.975,17.805 175.125,18.975 C176.275,20.145 177.67,20.73 179.31,20.73 C182.01,20.73 184.03,19.46 185.37,16.92 Z M185.37,12.57 C185.09,11.05 184.39,9.86 183.27,9 C182.15,8.14 180.86,7.71 179.4,7.71 C176.4,7.71 174.44,9.33 173.52,12.57 L185.37,12.57 Z" id="Shape"></path>
                        <polygon id="Path" points="189.16 0 191.2 0 191.2 22.08 189.16 22.08"></polygon>
                        <path d="M192.71,14.22 C192.71,11.88 193.515,9.88 195.125,8.22 C196.735,6.56 198.695,5.73 201.005,5.73 C203.315,5.73 205.275,6.56 206.885,8.22 C208.495,9.88 209.3,11.87 209.3,14.19 C209.3,16.51 208.505,18.495 206.915,20.145 C205.325,21.795 203.36,22.62 201.02,22.62 C198.68,22.62 196.71,21.795 195.11,20.145 C193.51,18.495 192.71,16.52 192.71,14.22 Z M207.23,14.25 C207.23,12.49 206.615,10.965 205.385,9.675 C204.155,8.385 202.695,7.74 201.005,7.74 C199.315,7.74 197.86,8.385 196.64,9.675 C195.42,10.965 194.81,12.5 194.81,14.28 C194.81,16.06 195.4,17.57 196.58,18.81 C197.76,20.05 199.225,20.67 200.975,20.67 C202.725,20.67 204.205,20.045 205.415,18.795 C206.625,17.545 207.23,16.03 207.23,14.25 Z" id="Shape"></path>
                        <path d="M211.14,6.15 L213.18,6.15 L213.18,9.06 C214.8,6.84 216.91,5.73 219.51,5.73 C221.75,5.73 223.68,6.555 225.3,8.205 C226.92,9.855 227.73,11.84 227.73,14.16 C227.73,16.48 226.93,18.47 225.33,20.13 C223.73,21.79 221.81,22.62 219.57,22.62 C217.13,22.62 215,21.53 213.18,19.35 L213.18,27.9 L211.14,27.9 L211.14,6.15 Z M225.69,14.19 C225.69,12.41 225.075,10.885 223.845,9.615 C222.615,8.345 221.11,7.71 219.33,7.71 C217.55,7.71 216.055,8.335 214.845,9.585 C213.635,10.835 213.03,12.38 213.03,14.22 C213.03,16.06 213.65,17.605 214.89,18.855 C216.13,20.105 217.615,20.73 219.345,20.73 C221.075,20.73 222.565,20.095 223.815,18.825 C225.065,17.555 225.69,16.01 225.69,14.19 Z" id="Shape"></path>
                        <path d="M242.98,16.92 L244.72,17.82 C243,21.02 240.46,22.62 237.1,22.62 C234.7,22.62 232.72,21.795 231.16,20.145 C229.6,18.495 228.82,16.51 228.82,14.19 C228.82,11.87 229.605,9.88 231.175,8.22 C232.745,6.56 234.685,5.73 236.995,5.73 C239.305,5.73 241.245,6.5 242.815,8.04 C244.385,9.58 245.2,11.68 245.26,14.34 L230.92,14.34 C230.98,16.26 231.585,17.805 232.735,18.975 C233.885,20.145 235.28,20.73 236.92,20.73 C239.62,20.73 241.64,19.46 242.98,16.92 Z M242.98,12.57 C242.7,11.05 242,9.86 240.88,9 C239.76,8.14 238.47,7.71 237.01,7.71 C234.01,7.71 232.05,9.33 231.13,12.57 L242.98,12.57 Z" id="Shape"></path>
                        <path d="M246.29,6.15 L248.39,6.15 L248.39,8.46 C248.95,7.52 249.495,6.83 250.025,6.39 C250.555,5.95 251.145,5.73 251.795,5.73 C252.445,5.73 253.1,5.91 253.76,6.27 L252.68,8.01 C252.38,7.83 252.07,7.74 251.75,7.74 C251.13,7.74 250.545,8.06 249.995,8.7 C249.445,9.34 249.04,10.165 248.78,11.175 C248.52,12.185 248.39,14.02 248.39,16.68 L248.39,22.08 L246.29,22.08 L246.29,6.15 Z" id="Path"></path>
                    </g>
                    <g id="CS-@-University-of-W" transform="translate(501.1127, 0)">
                        <path d="M21.06,4.86 L19.38,6.15 C17.38,3.67 14.81,2.43 11.67,2.43 C9.11,2.43 6.905,3.33 5.055,5.13 C3.205,6.93 2.28,9.135 2.28,11.745 C2.28,14.355 3.185,16.535 4.995,18.285 C6.805,20.035 9.07,20.91 11.79,20.91 C14.83,20.91 17.36,19.73 19.38,17.37 L21.06,18.66 C20,20.06 18.66,21.125 17.04,21.855 C15.42,22.585 13.63,22.95 11.67,22.95 C8.25,22.95 5.45,21.87 3.27,19.71 C1.09,17.55 0,14.82 0,11.52 C0,9.48 0.505,7.595 1.515,5.865 C2.525,4.135 3.925,2.78 5.715,1.8 C7.505,0.82 9.43,0.33 11.49,0.33 C13.55,0.33 15.4,0.72 17.04,1.5 C18.68,2.28 20.02,3.4 21.06,4.86 Z" id="Path"></path>
                        <path d="M21.16,18.39 L22.99,17.31 C24.27,19.67 25.76,20.85 27.46,20.85 C28.56,20.85 29.5,20.5 30.28,19.8 C31.06,19.1 31.45,18.23 31.45,17.19 C31.45,16.37 31.12,15.54 30.46,14.7 C29.8,13.86 28.705,12.865 27.175,11.715 C25.645,10.565 24.615,9.705 24.085,9.135 C23.555,8.565 23.165,7.955 22.915,7.305 C22.665,6.655 22.54,6 22.54,5.34 C22.54,3.94 23.035,2.755 24.025,1.785 C25.015,0.815 26.26,0.33 27.76,0.33 C28.94,0.33 29.97,0.625 30.85,1.215 C31.73,1.805 32.58,2.68 33.4,3.84 L31.66,5.19 C31.1,4.43 30.52,3.8 29.92,3.3 C29.32,2.8 28.585,2.55 27.715,2.55 C26.845,2.55 26.135,2.81 25.585,3.33 C25.035,3.85 24.76,4.51 24.76,5.31 C24.76,6.11 25.005,6.805 25.495,7.395 C25.985,7.985 27.095,8.92 28.825,10.2 C30.555,11.48 31.815,12.66 32.605,13.74 C33.395,14.82 33.79,15.96 33.79,17.16 C33.79,18.72 33.185,20.075 31.975,21.225 C30.765,22.375 29.36,22.95 27.76,22.95 C24.94,22.95 22.74,21.43 21.16,18.39 Z" id="Path"></path>
                        <path d="M61.86,18.15 L63.42,18.15 C62.22,19.75 60.9,20.95 59.46,21.75 C58.02,22.55 56.255,22.95 54.165,22.95 C52.075,22.95 50.105,22.405 48.255,21.315 C46.405,20.225 45.02,18.815 44.1,17.085 C43.18,15.355 42.72,13.495 42.72,11.505 C42.72,9.515 43.205,7.625 44.175,5.835 C45.145,4.045 46.52,2.625 48.3,1.575 C50.08,0.525 51.975,0 53.985,0 C55.995,0 57.815,0.43 59.445,1.29 C61.075,2.15 62.36,3.315 63.3,4.785 C64.24,6.255 64.71,7.8 64.71,9.42 C64.71,11.04 64.34,12.51 63.6,13.83 C62.86,15.15 61.875,16.19 60.645,16.95 C59.415,17.71 58.24,18.09 57.12,18.09 C56,18.09 55.44,17.55 55.44,16.47 C54.54,17.45 53.43,17.94 52.11,17.94 C50.79,17.94 49.67,17.45 48.75,16.47 C47.83,15.49 47.37,14.22 47.37,12.66 C47.37,11.46 47.67,10.275 48.27,9.105 C48.87,7.935 49.65,7.085 50.61,6.555 C51.57,6.025 52.56,5.76 53.58,5.76 C55.36,5.76 56.66,6.48 57.48,7.92 L57.84,5.91 L59.43,5.91 L57.72,15.48 C57.68,15.68 57.66,15.85 57.66,15.99 C57.66,16.53 57.9,16.8 58.38,16.8 C59.48,16.8 60.62,16.115 61.8,14.745 C62.98,13.375 63.57,11.7 63.57,9.72 C63.57,7.32 62.665,5.315 60.855,3.705 C59.045,2.095 56.8,1.29 54.12,1.29 C52.18,1.29 50.425,1.74 48.855,2.64 C47.285,3.54 46.06,4.785 45.18,6.375 C44.3,7.965 43.86,9.655 43.86,11.445 C43.86,13.235 44.28,14.905 45.12,16.455 C45.96,18.005 47.205,19.26 48.855,20.22 C50.505,21.18 52.32,21.66 54.3,21.66 C55.86,21.66 57.215,21.37 58.365,20.79 C59.515,20.21 60.68,19.33 61.86,18.15 Z M52.89,16.29 C54.11,16.29 55.065,15.745 55.755,14.655 C56.445,13.565 56.79,12.23 56.79,10.65 C56.79,9.65 56.515,8.845 55.965,8.235 C55.415,7.625 54.7,7.32 53.82,7.32 C52.62,7.32 51.6,7.815 50.76,8.805 C49.92,9.795 49.5,10.94 49.5,12.24 C49.5,13.54 49.825,14.54 50.475,15.24 C51.125,15.94 51.93,16.29 52.89,16.29 Z" id="Shape"></path>
                        <path d="M71.42,0.87 L73.58,0.87 L73.58,13.86 C73.58,15.2 73.615,16.21 73.685,16.89 C73.755,17.57 73.995,18.225 74.405,18.855 C74.815,19.485 75.39,19.985 76.13,20.355 C76.87,20.725 77.665,20.91 78.515,20.91 C79.365,20.91 80.11,20.755 80.75,20.445 C81.39,20.135 81.93,19.7 82.37,19.14 C82.81,18.58 83.115,17.965 83.285,17.295 C83.455,16.625 83.54,15.48 83.54,13.86 L83.54,0.87 L85.67,0.87 L85.67,13.86 C85.67,16.04 85.45,17.71 85.01,18.87 C84.57,20.03 83.795,21 82.685,21.78 C81.575,22.56 80.27,22.95 78.77,22.95 C77.57,22.95 76.49,22.755 75.53,22.365 C74.57,21.975 73.77,21.43 73.13,20.73 C72.49,20.03 72.045,19.25 71.795,18.39 C71.545,17.53 71.42,16.02 71.42,13.86 L71.42,0.87 Z" id="Path"></path>
                        <path d="M88.65,6.48 L90.72,6.48 L90.72,9.33 C92.36,7.15 94.35,6.06 96.69,6.06 C97.89,6.06 98.97,6.385 99.93,7.035 C100.89,7.685 101.57,8.535 101.97,9.585 C102.37,10.635 102.57,12.18 102.57,14.22 L102.57,22.41 L100.53,22.41 L100.53,14.82 C100.53,12.96 100.445,11.7 100.275,11.04 C100.105,10.38 99.845,9.82 99.495,9.36 C99.145,8.9 98.7,8.55 98.16,8.31 C97.62,8.07 96.965,7.95 96.195,7.95 C95.425,7.95 94.67,8.14 93.93,8.52 C93.19,8.9 92.56,9.43 92.04,10.11 C91.52,10.79 91.17,11.49 90.99,12.21 C90.81,12.93 90.72,14.38 90.72,16.56 L90.72,22.41 L88.65,22.41 L88.65,6.48 Z" id="Path"></path>
                        <path d="M103.99,2.04 C103.99,1.58 104.155,1.18 104.485,0.84 C104.815,0.5 105.215,0.33 105.685,0.33 C106.155,0.33 106.555,0.495 106.885,0.825 C107.215,1.155 107.38,1.555 107.38,2.025 C107.38,2.495 107.215,2.895 106.885,3.225 C106.555,3.555 106.155,3.72 105.685,3.72 C105.215,3.72 104.815,3.55 104.485,3.21 C104.155,2.87 103.99,2.48 103.99,2.04 Z M104.65,6.48 L106.72,6.48 L106.72,22.41 L104.65,22.41 L104.65,6.48 Z" id="Shape"></path>
                        <polygon id="Path" points="107.45 6.48 109.64 6.48 114.95 18.6 120.26 6.48 122.45 6.48 115.16 22.95 114.8 22.95"></polygon>
                        <path d="M136.98,17.25 L138.72,18.15 C137,21.35 134.46,22.95 131.1,22.95 C128.7,22.95 126.72,22.125 125.16,20.475 C123.6,18.825 122.82,16.84 122.82,14.52 C122.82,12.2 123.605,10.21 125.175,8.55 C126.745,6.89 128.685,6.06 130.995,6.06 C133.305,6.06 135.245,6.83 136.815,8.37 C138.385,9.91 139.2,12.01 139.26,14.67 L124.92,14.67 C124.98,16.59 125.585,18.135 126.735,19.305 C127.885,20.475 129.28,21.06 130.92,21.06 C133.62,21.06 135.64,19.79 136.98,17.25 Z M136.98,12.9 C136.7,11.38 136,10.19 134.88,9.33 C133.76,8.47 132.47,8.04 131.01,8.04 C128.01,8.04 126.05,9.66 125.13,12.9 L136.98,12.9 Z" id="Shape"></path>
                        <path d="M140.29,6.48 L142.39,6.48 L142.39,8.79 C142.95,7.85 143.495,7.16 144.025,6.72 C144.555,6.28 145.145,6.06 145.795,6.06 C146.445,6.06 147.1,6.24 147.76,6.6 L146.68,8.34 C146.38,8.16 146.07,8.07 145.75,8.07 C145.13,8.07 144.545,8.39 143.995,9.03 C143.445,9.67 143.04,10.495 142.78,11.505 C142.52,12.515 142.39,14.35 142.39,17.01 L142.39,22.41 L140.29,22.41 L140.29,6.48 Z" id="Path"></path>
                        <path d="M156.11,8.22 L154.79,9.57 C153.69,8.51 152.62,7.98 151.58,7.98 C150.9,7.98 150.33,8.195 149.87,8.625 C149.41,9.055 149.18,9.585 149.18,10.215 C149.18,10.845 149.425,11.385 149.915,11.835 C150.405,12.285 151.25,12.825 152.45,13.455 C153.65,14.085 154.565,14.765 155.195,15.495 C155.825,16.225 156.14,17.12 156.14,18.18 C156.14,19.52 155.675,20.65 154.745,21.57 C153.815,22.49 152.67,22.95 151.31,22.95 C150.41,22.95 149.545,22.75 148.715,22.35 C147.885,21.95 147.18,21.39 146.6,20.67 L147.89,19.23 C148.95,20.41 150.06,21 151.22,21 C152.04,21 152.74,20.73 153.32,20.19 C153.9,19.65 154.19,19.015 154.19,18.285 C154.19,17.555 153.935,16.955 153.425,16.485 C152.915,16.015 152.065,15.48 150.875,14.88 C149.685,14.28 148.795,13.625 148.205,12.915 C147.615,12.205 147.32,11.285 147.32,10.155 C147.32,9.025 147.735,8.06 148.565,7.26 C149.395,6.46 150.495,6.06 151.865,6.06 C153.235,6.06 154.65,6.78 156.11,8.22 Z" id="Path"></path>
                        <path d="M156.78,2.04 C156.78,1.58 156.945,1.18 157.275,0.84 C157.605,0.5 158.005,0.33 158.475,0.33 C158.945,0.33 159.345,0.495 159.675,0.825 C160.005,1.155 160.17,1.555 160.17,2.025 C160.17,2.495 160.005,2.895 159.675,3.225 C159.345,3.555 158.945,3.72 158.475,3.72 C158.005,3.72 157.605,3.55 157.275,3.21 C156.945,2.87 156.78,2.48 156.78,2.04 Z M157.44,6.48 L159.51,6.48 L159.51,22.41 L157.44,22.41 L157.44,6.48 Z" id="Shape"></path>
                        <path d="M165.61,19.89 C165.61,20.43 165.68,20.75 165.82,20.85 C165.96,20.95 166.32,21 166.9,21 L168.13,21 L168.13,22.74 C167.29,22.88 166.63,22.95 166.15,22.95 C165.25,22.95 164.59,22.73 164.17,22.29 C163.75,21.85 163.54,21.16 163.54,20.22 L163.54,8.22 L160.72,8.22 L160.72,6.48 L163.54,6.48 L163.54,0.33 L165.61,0.33 L165.61,6.48 L168.85,6.48 L168.85,8.22 L165.61,8.22 L165.61,19.89 Z" id="Path"></path>
                        <polygon id="Path" points="168.2 6.48 170.36 6.48 175.85 18.75 181.16 6.48 183.35 6.48 173.84 28.23 171.68 28.23 174.74 21.21"></polygon>
                        <path d="M188.74,14.55 C188.74,12.21 189.545,10.21 191.155,8.55 C192.765,6.89 194.725,6.06 197.035,6.06 C199.345,6.06 201.305,6.89 202.915,8.55 C204.525,10.21 205.33,12.2 205.33,14.52 C205.33,16.84 204.535,18.825 202.945,20.475 C201.355,22.125 199.39,22.95 197.05,22.95 C194.71,22.95 192.74,22.125 191.14,20.475 C189.54,18.825 188.74,16.85 188.74,14.55 Z M203.26,14.58 C203.26,12.82 202.645,11.295 201.415,10.005 C200.185,8.715 198.725,8.07 197.035,8.07 C195.345,8.07 193.89,8.715 192.67,10.005 C191.45,11.295 190.84,12.83 190.84,14.61 C190.84,16.39 191.43,17.9 192.61,19.14 C193.79,20.38 195.255,21 197.005,21 C198.755,21 200.235,20.375 201.445,19.125 C202.655,17.875 203.26,16.36 203.26,14.58 Z" id="Shape"></path>
                        <path d="M213.71,0.75 L213.71,2.76 C212.93,2.42 212.235,2.25 211.625,2.25 C211.015,2.25 210.62,2.445 210.44,2.835 C210.26,3.225 210.17,3.86 210.17,4.74 L210.17,6.48 L213.5,6.48 L213.5,8.22 L210.17,8.22 L210.17,22.41 L208.1,22.41 L208.1,8.22 L206.03,8.22 L206.03,6.48 L208.1,6.48 L208.1,4.41 C208.1,3.01 208.36,1.98 208.88,1.32 C209.4,0.66 210.21,0.33 211.31,0.33 C211.95,0.33 212.75,0.47 213.71,0.75 Z" id="Path"></path>
                        <polygon id="Path" points="219.19 0.87 221.41 0.87 225.79 16.92 231.97 0.87 232.39 0.87 238.51 16.92 242.98 0.87 245.17 0.87 238.99 22.95 238.57 22.95 232.18 6.12 225.67 22.95 225.28 22.95"></polygon>
                        <path d="M262.73,6.48 L262.73,22.41 L260.72,22.41 L260.72,19.68 C258.9,21.86 256.82,22.95 254.48,22.95 C252.14,22.95 250.165,22.115 248.555,20.445 C246.945,18.775 246.14,16.785 246.14,14.475 C246.14,12.165 246.95,10.185 248.57,8.535 C250.19,6.885 252.13,6.06 254.39,6.06 C256.99,6.06 259.1,7.17 260.72,9.39 L260.72,6.48 L262.73,6.48 Z M260.84,14.52 C260.84,12.7 260.23,11.165 259.01,9.915 C257.79,8.665 256.295,8.04 254.525,8.04 C252.755,8.04 251.26,8.685 250.04,9.975 C248.82,11.265 248.21,12.79 248.21,14.55 C248.21,16.31 248.83,17.835 250.07,19.125 C251.31,20.415 252.795,21.06 254.525,21.06 C256.255,21.06 257.74,20.44 258.98,19.2 C260.22,17.96 260.84,16.4 260.84,14.52 Z" id="Shape"></path>
                        <path d="M269.22,19.89 C269.22,20.43 269.29,20.75 269.43,20.85 C269.57,20.95 269.93,21 270.51,21 L271.74,21 L271.74,22.74 C270.9,22.88 270.24,22.95 269.76,22.95 C268.86,22.95 268.2,22.73 267.78,22.29 C267.36,21.85 267.15,21.16 267.15,20.22 L267.15,8.22 L264.33,8.22 L264.33,6.48 L267.15,6.48 L267.15,0.33 L269.22,0.33 L269.22,6.48 L272.46,6.48 L272.46,8.22 L269.22,8.22 L269.22,19.89 Z" id="Path"></path>
                        <path d="M286.93,17.25 L288.67,18.15 C286.95,21.35 284.41,22.95 281.05,22.95 C278.65,22.95 276.67,22.125 275.11,20.475 C273.55,18.825 272.77,16.84 272.77,14.52 C272.77,12.2 273.555,10.21 275.125,8.55 C276.695,6.89 278.635,6.06 280.945,6.06 C283.255,6.06 285.195,6.83 286.765,8.37 C288.335,9.91 289.15,12.01 289.21,14.67 L274.87,14.67 C274.93,16.59 275.535,18.135 276.685,19.305 C277.835,20.475 279.23,21.06 280.87,21.06 C283.57,21.06 285.59,19.79 286.93,17.25 Z M286.93,12.9 C286.65,11.38 285.95,10.19 284.83,9.33 C283.71,8.47 282.42,8.04 280.96,8.04 C277.96,8.04 276,9.66 275.08,12.9 L286.93,12.9 Z" id="Shape"></path>
                        <path d="M290.24,6.48 L292.34,6.48 L292.34,8.79 C292.9,7.85 293.445,7.16 293.975,6.72 C294.505,6.28 295.095,6.06 295.745,6.06 C296.395,6.06 297.05,6.24 297.71,6.6 L296.63,8.34 C296.33,8.16 296.02,8.07 295.7,8.07 C295.08,8.07 294.495,8.39 293.945,9.03 C293.395,9.67 292.99,10.495 292.73,11.505 C292.47,12.515 292.34,14.35 292.34,17.01 L292.34,22.41 L290.24,22.41 L290.24,6.48 Z" id="Path"></path>
                        <polygon id="Path" points="297.75 0.33 299.79 0.33 299.79 22.41 297.75 22.41"></polygon>
                        <path d="M301.3,14.55 C301.3,12.21 302.105,10.21 303.715,8.55 C305.325,6.89 307.285,6.06 309.595,6.06 C311.905,6.06 313.865,6.89 315.475,8.55 C317.085,10.21 317.89,12.2 317.89,14.52 C317.89,16.84 317.095,18.825 315.505,20.475 C313.915,22.125 311.95,22.95 309.61,22.95 C307.27,22.95 305.3,22.125 303.7,20.475 C302.1,18.825 301.3,16.85 301.3,14.55 Z M315.82,14.58 C315.82,12.82 315.205,11.295 313.975,10.005 C312.745,8.715 311.285,8.07 309.595,8.07 C307.905,8.07 306.45,8.715 305.23,10.005 C304.01,11.295 303.4,12.83 303.4,14.61 C303.4,16.39 303.99,17.9 305.17,19.14 C306.35,20.38 307.815,21 309.565,21 C311.315,21 312.795,20.375 314.005,19.125 C315.215,17.875 315.82,16.36 315.82,14.58 Z" id="Shape"></path>
                        <path d="M318.95,14.55 C318.95,12.21 319.755,10.21 321.365,8.55 C322.975,6.89 324.935,6.06 327.245,6.06 C329.555,6.06 331.515,6.89 333.125,8.55 C334.735,10.21 335.54,12.2 335.54,14.52 C335.54,16.84 334.745,18.825 333.155,20.475 C331.565,22.125 329.6,22.95 327.26,22.95 C324.92,22.95 322.95,22.125 321.35,20.475 C319.75,18.825 318.95,16.85 318.95,14.55 Z M333.47,14.58 C333.47,12.82 332.855,11.295 331.625,10.005 C330.395,8.715 328.935,8.07 327.245,8.07 C325.555,8.07 324.1,8.715 322.88,10.005 C321.66,11.295 321.05,12.83 321.05,14.61 C321.05,16.39 321.64,17.9 322.82,19.14 C324,20.38 325.465,21 327.215,21 C328.965,21 330.445,20.375 331.655,19.125 C332.865,17.875 333.47,16.36 333.47,14.58 Z" id="Shape"></path>
                    </g>
                </g>
            </g>
        </g>
    </g>
</svg>