<?xml version="1.0" encoding="UTF-8"?>
<svg width="30px" height="30px" viewBox="0 0 30 30" version="1.1" xmlns="http://www.w3.org/2000/svg" xmlns:xlink="http://www.w3.org/1999/xlink">
    <title>square-instagram-brands-solid-full</title>
    <g id="square-instagram-brands-solid-full" stroke="none" fill="none" fill-rule="nonzero">
        <path d="M13.6051587,12.9124504 C12.8323413,13.3978175 12.3846726,14.2695933 12.4317956,15.1790675 C12.483631,16.093254 13.0302579,16.9037698 13.8501984,17.3043155 C14.6748512,17.7001488 15.6502976,17.6153274 16.3948413,17.0875496 C17.1676587,16.6021825 17.6153274,15.7304067 17.5682044,14.8209325 C17.516369,13.906746 16.9697421,13.0962302 16.1498016,12.6956845 C15.3251488,12.2998512 14.3497024,12.3846726 13.6051587,12.9124504 Z M20.3107639,9.68923611 C20.0657242,9.44419643 19.7688492,9.25099206 19.4437004,9.12375992 C18.5907738,8.78918651 16.7294147,8.80332341 15.5277778,8.81746032 C15.3345734,8.81746032 15.155506,8.82217262 15,8.82217262 C14.844494,8.82217262 14.6607143,8.82217262 14.4627976,8.81746032 C13.2611607,8.80332341 11.4092262,8.78447421 10.5562996,9.12375992 C10.2311508,9.25099206 9.9389881,9.44419643 9.68923611,9.68923611 C9.43948413,9.93427579 9.25099206,10.2311508 9.12375992,10.5562996 C8.78918651,11.4092262 8.80803571,13.2752976 8.81746032,14.4769345 C8.81746032,14.6701389 8.82217262,14.8492063 8.82217262,15 C8.82217262,15.1507937 8.82217262,15.3298611 8.81746032,15.5230655 C8.80803571,16.7247024 8.78918651,18.5907738 9.12375992,19.4437004 C9.25099206,19.7688492 9.44419643,20.0610119 9.68923611,20.3107639 C9.93427579,20.5605159 10.2311508,20.7490079 10.5562996,20.8762401 C11.4092262,21.2108135 13.2705853,21.1966766 14.4722222,21.1825397 C14.6654266,21.1825397 14.844494,21.1778274 15,21.1778274 C15.155506,21.1778274 15.3392857,21.1778274 15.5372024,21.1825397 C16.7388393,21.1966766 18.5907738,21.2155258 19.4437004,20.8762401 C19.7688492,20.7490079 20.0610119,20.5558036 20.3107639,20.3107639 C20.5605159,20.0657242 20.7490079,19.7688492 20.8762401,19.4437004 C21.2155258,18.5954861 21.1966766,16.7388393 21.1825397,15.5324901 C21.1825397,15.3345734 21.1778274,15.1507937 21.1778274,14.9952877 C21.1778274,14.8397817 21.1778274,14.6607143 21.1825397,14.4580853 C21.1966766,13.2564484 21.2155258,11.3998016 20.8762401,10.546875 C20.7490079,10.2217262 20.5558036,9.92956349 20.3107639,9.67981151 L20.3107639,9.68923611 Z M17.1488095,11.7862103 C18.0017361,12.3563988 18.5907738,13.2423115 18.7934028,14.2460317 C18.9960317,15.249752 18.7839782,16.2958829 18.2137897,17.1488095 C17.9310516,17.5729167 17.5682044,17.9310516 17.1488095,18.2137897 C16.7294147,18.4965278 16.2534722,18.6897321 15.7539683,18.7886905 C14.750248,18.9866071 13.7041171,18.7792659 12.8511905,18.2090774 C11.9982639,17.6388889 11.4092262,16.7529762 11.2065972,15.749256 C11.0039683,14.7455357 11.2160218,13.6994048 11.781498,12.8464782 C12.3469742,11.9935516 13.2375992,11.4045139 14.2413194,11.2018849 C15.2450397,10.999256 16.2911706,11.2113095 17.1440972,11.7767857 L17.1488095,11.7767857 L17.1488095,11.7862103 Z M18.5248016,11.7249504 C18.3787202,11.6259921 18.2609127,11.484623 18.1902282,11.3196925 C18.1195437,11.1547619 18.1054067,10.9756944 18.1383929,10.796627 C18.171379,10.6175595 18.2609127,10.4620536 18.3834325,10.3348214 C18.5059524,10.2075893 18.6708829,10.1227679 18.8452381,10.0897817 C19.0195933,10.0567956 19.203373,10.0709325 19.3683036,10.1416171 C19.5332341,10.2123016 19.6746032,10.3253968 19.7735615,10.4714782 C19.8725198,10.6175595 19.9243552,10.7919147 19.9243552,10.9709821 C19.9243552,11.0887897 19.9007937,11.2065972 19.8583829,11.3149802 C19.8159722,11.4233631 19.7452877,11.5223214 19.6651786,11.6071429 C19.5850694,11.6919643 19.4813988,11.7579365 19.3730159,11.8050595 C19.2646329,11.8521825 19.1468254,11.875744 19.0290179,11.875744 C18.8499504,11.875744 18.6755952,11.8239087 18.5295139,11.7249504 L18.5248016,11.7249504 Z M25.5555556,7.46031746 C25.5555556,5.796875 24.203125,4.44444444 22.5396825,4.44444444 L7.46031746,4.44444444 C5.796875,4.44444444 4.44444444,5.796875 4.44444444,7.46031746 L4.44444444,22.5396825 C4.44444444,24.203125 5.796875,25.5555556 7.46031746,25.5555556 L22.5396825,25.5555556 C24.203125,25.5555556 25.5555556,24.203125 25.5555556,22.5396825 L25.5555556,7.46031746 Z M21.2673611,21.2673611 C20.3861607,22.1485615 19.3164683,22.4265873 18.110119,22.4878472 C16.8660714,22.5585317 13.1339286,22.5585317 11.889881,22.4878472 C10.6835317,22.4265873 9.61383929,22.1485615 8.73263889,21.2673611 C7.85143849,20.3861607 7.5734127,19.3164683 7.51686508,18.110119 C7.44618056,16.8660714 7.44618056,13.1339286 7.51686508,11.889881 C7.578125,10.6835317 7.85143849,9.61383929 8.73263889,8.73263889 C9.61383929,7.85143849 10.688244,7.5734127 11.889881,7.51686508 C13.1339286,7.44618056 16.8660714,7.44618056 18.110119,7.51686508 C19.3164683,7.578125 20.3861607,7.85143849 21.2673611,8.73263889 C22.1485615,9.61383929 22.4265873,10.6835317 22.4831349,11.889881 C22.5538194,13.1292163 22.5538194,16.8566468 22.4831349,18.1054067 C22.421875,19.311756 22.1485615,20.3814484 21.2673611,21.2626488 L21.2673611,21.2673611 Z" id="Shape" fill="#FFF1A8"></path>
    </g>
</svg>