<?xml version="1.0" encoding="UTF-8"?>
<svg width="30px" height="30px" viewBox="0 0 30 30" version="1.1" xmlns="http://www.w3.org/2000/svg" xmlns:xlink="http://www.w3.org/1999/xlink">
    <title>square-linkedin-brands-solid-full (1)</title>
    <g id="square-linkedin-brands-solid-full-(1)" stroke="none" fill="none" fill-rule="nonzero">
        <path d="M7.46031746,4.44444444 C5.796875,4.44444444 4.44444444,5.796875 4.44444444,7.46031746 L4.44444444,22.5396825 C4.44444444,24.203125 5.796875,25.5555556 7.46031746,25.5555556 L22.5396825,25.5555556 C24.203125,25.5555556 25.5555556,24.203125 25.5555556,22.5396825 L25.5555556,7.46031746 C25.5555556,5.796875 24.203125,4.44444444 22.5396825,4.44444444 L7.46031746,4.44444444 Z M7.69593254,12.4647817 L10.8296131,12.4647817 L10.8296131,22.5396825 L7.69593254,22.5396825 L7.69593254,12.4647817 Z M11.0746528,9.27455357 C11.0746528,10.2782738 10.2641369,11.0887897 9.26041667,11.0887897 C8.25669643,11.0887897 7.44618056,10.2782738 7.44618056,9.27455357 C7.44618056,8.27083333 8.25669643,7.46031746 9.26041667,7.46031746 C10.2641369,7.46031746 11.0746528,8.27083333 11.0746528,9.27455357 Z M19.4248512,22.5396825 L19.4248512,17.6388889 C19.4248512,16.4702381 19.4012897,14.9670139 17.7991071,14.9670139 C16.1686508,14.9670139 15.9188988,16.2393353 15.9188988,17.5540675 L15.9188988,22.5396825 L12.7899306,22.5396825 L12.7899306,12.4647817 L15.7916667,12.4647817 L15.7916667,13.8407738 L15.8340774,13.8407738 C16.2534722,13.0491071 17.2760417,12.2150298 18.7981151,12.2150298 C21.9647817,12.2150298 22.5538194,14.3025794 22.5538194,17.0168651 L22.5538194,22.5396825 L19.4248512,22.5396825 Z" id="Shape" fill="#FFF1A8"></path>
    </g>
</svg>