<?xml version="1.0" encoding="UTF-8"?>
<svg width="27px" height="27px" viewBox="0 0 27 27" version="1.1" xmlns="http://www.w3.org/2000/svg" xmlns:xlink="http://www.w3.org/1999/xlink">
    <title>square-linkedin-brands-solid-full</title>
    <g id="square-linkedin-brands-solid-full" stroke="none" fill="none" fill-rule="nonzero">
        <path d="M6.75,4.05 C5.26078125,4.05 4.05,5.26078125 4.05,6.75 L4.05,20.25 C4.05,21.7392187 5.26078125,22.95 6.75,22.95 L20.25,22.95 C21.7392187,22.95 22.95,21.7392187 22.95,20.25 L22.95,6.75 C22.95,5.26078125 21.7392187,4.05 20.25,4.05 L6.75,4.05 Z M6.9609375,11.2303125 L9.76640625,11.2303125 L9.76640625,20.25 L6.9609375,20.25 L6.9609375,11.2303125 Z M9.98578125,8.37421875 C9.98578125,9.2728125 9.26015625,9.9984375 8.3615625,9.9984375 C7.46296875,9.9984375 6.73734375,9.2728125 6.73734375,8.37421875 C6.73734375,7.475625 7.46296875,6.75 8.3615625,6.75 C9.26015625,6.75 9.98578125,7.475625 9.98578125,8.37421875 Z M17.4614063,20.25 L17.4614063,15.8625 C17.4614063,14.81625 17.4403125,13.4704687 16.0059375,13.4704687 C14.54625,13.4704687 14.3226562,14.6095312 14.3226562,15.7865625 L14.3226562,20.25 L11.5214063,20.25 L11.5214063,11.2303125 L14.20875,11.2303125 L14.20875,12.4621875 L14.2467188,12.4621875 C14.6221875,11.7534375 15.5376562,11.0067188 16.9003125,11.0067188 C19.7353125,11.0067188 20.2626563,12.875625 20.2626563,15.305625 L20.2626563,20.25 L17.4614063,20.25 Z" id="Shape" fill="#A8E4FF"></path>
    </g>
</svg>