<?xml version="1.0" encoding="UTF-8"?>
<svg width="30px" height="30px" viewBox="0 0 30 30" version="1.1" xmlns="http://www.w3.org/2000/svg" xmlns:xlink="http://www.w3.org/1999/xlink">
    <title>envelope-regular-full (1)</title>
    <g id="envelope-regular-full-(1)" stroke="none" fill="none" fill-rule="nonzero">
        <path d="M6.03601974,6 C4.44695724,6 3.15789474,7.2890625 3.15789474,8.878125 C3.15789474,8.9203125 3.15789474,8.9578125 3.16258224,9 L3.15789474,9 L3.15789474,21 C3.15789474,22.6546875 4.50320724,24 6.15789474,24 L24.1578947,24 C25.8125822,24 27.1578947,22.6546875 27.1578947,21 L27.1578947,9 L27.1532072,9 C27.1532072,8.9578125 27.1578947,8.9203125 27.1578947,8.878125 C27.1578947,7.2890625 25.8688322,6 24.2797697,6 L6.03601974,6 Z M24.9078947,12.0140625 L24.9078947,21 C24.9078947,21.4125 24.5703947,21.75 24.1578947,21.75 L6.15789474,21.75 C5.74539474,21.75 5.40789474,21.4125 5.40789474,21 L5.40789474,12.0140625 L12.6641447,17.5171875 C14.1360197,18.6375 16.1750822,18.6375 17.6516447,17.5171875 L24.9078947,12.0140625 Z M5.40789474,8.878125 C5.40789474,8.53125 5.68914474,8.25 6.03601974,8.25 L24.2797697,8.25 C24.6266447,8.25 24.9078947,8.53125 24.9078947,8.878125 C24.9078947,9.075 24.8141447,9.2625 24.6594572,9.3796875 L16.2922697,15.7265625 C15.6219572,16.2328125 14.6938322,16.2328125 14.0235197,15.7265625 L5.65633224,9.3796875 C5.50164474,9.2625 5.40789474,9.075 5.40789474,8.878125 Z" id="Shape" fill="#FFF1A8"></path>
    </g>
</svg>