<?xml version="1.0" encoding="UTF-8"?>
<svg width="27px" height="27px" viewBox="0 0 27 27" version="1.1" xmlns="http://www.w3.org/2000/svg" xmlns:xlink="http://www.w3.org/1999/xlink">
    <title>envelope-regular-full</title>
    <g id="envelope-regular-full" stroke="none" fill="none" fill-rule="nonzero">
        <path d="M5.2903125,5.4 C3.86015625,5.4 2.7,6.56015625 2.7,7.9903125 C2.7,8.02828125 2.7,8.06203125 2.70421875,8.1 L2.7,8.1 L2.7,18.9 C2.7,20.3892188 3.91078125,21.6 5.4,21.6 L21.6,21.6 C23.0892188,21.6 24.3,20.3892188 24.3,18.9 L24.3,8.1 L24.2957813,8.1 C24.2957813,8.06203125 24.3,8.02828125 24.3,7.9903125 C24.3,6.56015625 23.1398438,5.4 21.7096875,5.4 L5.2903125,5.4 Z M22.275,10.8126563 L22.275,18.9 C22.275,19.27125 21.97125,19.575 21.6,19.575 L5.4,19.575 C5.02875,19.575 4.725,19.27125 4.725,18.9 L4.725,10.8126563 L11.255625,15.7654688 C12.5803125,16.77375 14.4154688,16.77375 15.744375,15.7654688 L22.275,10.8126563 Z M4.725,7.9903125 C4.725,7.678125 4.978125,7.425 5.2903125,7.425 L21.7096875,7.425 C22.021875,7.425 22.275,7.678125 22.275,7.9903125 C22.275,8.1675 22.190625,8.33625 22.0514063,8.44171875 L14.5209375,14.1539063 C13.9176563,14.6095312 13.0823437,14.6095312 12.4790625,14.1539063 L4.94859375,8.44171875 C4.809375,8.33625 4.725,8.1675 4.725,7.9903125 Z" id="Shape" fill="#A8E4FF"></path>
    </g>
</svg>