<?xml version="1.0" encoding="UTF-8"?>
<svg width="1440px" height="439px" viewBox="0 0 1440 439" version="1.1" xmlns="http://www.w3.org/2000/svg" xmlns:xlink="http://www.w3.org/1999/xlink">
    <title>hero@2x</title>
    <defs>
        <path d="M0,0 L1440,0 L1440,439 L0,439 L0,0 Z" id="path-1"></path>
    </defs>
    <g id="hero" stroke="none" fill="none" xlink:href="#path-1" fill-rule="evenodd">
        <path d="M1455,597 L463,597 L463,178.642176 C468.596628,154.50433 510.04241,129.152337 521.739994,121.232569 C560.517297,94.9786635 604.478123,89.8142427 644.799829,115.469034 C655.238922,122.110934 683.634098,134.455095 694.408096,140.539492 C718.988459,154.420754 756.853976,165.977242 785.5466,159.184574 C838.149661,146.731369 854.815627,132.271724 895.588677,105.803449 C929.641266,83.6978363 968.777171,51.8824891 1012.61665,60.3779378 C1035.31224,64.7760109 1056.34291,87.5327339 1071.12591,100.231682 C1109.52394,133.216528 1148.63189,174.062817 1201.23587,167.196946 C1233.6327,162.968513 1253.79807,138.157988 1265.68916,124.779621 C1282.1162,106.297983 1282.27219,105.803449 1295.13689,92.7557194 C1301.84062,85.9566156 1312.04684,75.7932689 1318.98398,69.6902372 C1338.10664,52.8668445 1354.88729,40.0810821 1376.23354,27.505457 C1396.04662,15.8330578 1432.66948,5.01844001 1452.46312,14.8199903 C1453.55689,15.3616118 1454.15437,16.5794958 1455,17.4592485 L1455,597 Z" id="Path-2" fill="#39564F"></path>
        <path d="M642,575 L-20,575 L-20,137.166307 C-16.9461786,106.126106 -16.6123343,119.611841 2.34461923,84.8103856 C10.1365419,70.5058591 14.1183291,65.9181997 23.6489652,52.6095258 C30.7786061,42.6536252 42.9604859,28.5612983 52.6579238,20.7110132 C78.9438686,-0.568025803 113.34284,3.58614768 140.939858,28.5612983 C155.408472,41.6553153 175.487819,60.454257 201.177897,84.9581235 C224.126511,105.880143 244.991649,119.314012 263.773312,125.259729 C287.40876,132.742011 321.944747,138.520303 351.652293,138.056621 C378.436305,137.638569 403.997099,136.083872 421.67894,137.166307 C495.211628,141.667779 582.182108,210.497057 642,242.943144 L642,575 Z" id="Path" fill="#3E5E56"></path>
        <path d="M1455,600 L904,600 L904,292.208159 C918.465653,269.344629 941.338017,246.452152 963.668727,231.487548 C1006.40468,202.84866 1020.93118,191.510762 1070.99998,193.45679 C1098.9271,194.542235 1127.32517,221.215034 1149.51567,232.769328 C1183.46226,250.444862 1225.63912,256.233592 1263.42666,252.152528 C1337.22534,244.182253 1375.50027,152.677654 1451.11964,143 L1455,600 Z" id="Path-2" fill="#4C7068"></path>
        <path d="M1352,594 L-20,594 L-20,269.412611 C-4.00147783,252.159238 11.6502102,234.577578 27.9955665,217.652494 C32.1249838,213.376617 36.3868977,209.095921 41.3741812,205.861645 C55.2825874,196.841981 83.7469651,178.74305 103.79063,176.726287 C122.284949,174.865417 140.999147,174.022037 157.676847,176.726287 C180.665616,180.453862 201.107411,189.611069 223.727722,200.28168 C246.457845,211.004091 256.318241,217.652494 281.138762,233.638032 C294.140264,242.011588 303.048648,250.777632 315.876002,257.143196 C343.538866,270.870872 344.815389,272.002529 373.122818,277.341529 C411.517318,284.583029 456.942031,289.621001 494.675135,277.683293 C589.677001,247.627335 638.43017,178.9953 742.51269,180.639482 C760.816349,180.928623 802.866586,199.369291 811.695335,203.674357 C836.721343,215.877514 857.749198,229.271635 879.716107,244.327153 C908.701917,264.193232 934.913317,279.477517 959.545831,297.875508 C975.584768,309.854967 1034.45887,337.598839 1064.45404,337.598839 C1129.01732,337.598839 1125.34744,327.002943 1179.86151,312.908519 C1221.83405,302.056665 1227.2002,296.794772 1262.47921,304.946526 C1276.03669,308.079189 1313.71126,327.931661 1316.95415,329.613988 C1332.75131,337.809142 1336.38877,341.473493 1352,350.017586 L1352,594 Z" id="Path" fill="#507C6F"></path>
        <path d="M1470,575 L-29.5309985,575 L-30,493.528171 C-21.6518034,458.36468 -28.4841049,469.282238 5.75496534,418.889847 C19.2198756,399.072457 31.3474027,380.253606 50.6523395,363.379613 C59.17528,355.929911 75.9335272,341.854702 90.921935,335.602956 C95.3458988,333.757697 113.262813,326.315406 128.969678,325.660451 C132.94452,325.494705 136.794389,325.76534 140.277365,326.67436 C151.492824,329.601477 155.326702,330.700518 161.777695,335.602956 C168.228687,340.505393 175.504653,346.358322 182.071746,353.021414 C207.50314,378.824572 210.119139,386.182694 249.722261,403.2892 C262.484101,408.801656 283.12618,414.279759 294.045048,413.888535 C304.016952,413.53124 315.663622,415.165728 327.933593,411.764591 C340.559918,408.264677 351.994965,405.434527 363.087108,401.140359 C380.509052,394.395696 385.152041,392.125272 397.528809,387.302666 C409.905577,382.480061 411.886834,382.673069 423.210908,377.311503 C446.257343,366.399795 445.615089,366.945505 461.155866,356.21735 C476.696643,345.489195 474.808177,348.251541 490.799352,335.602956 C498.456272,329.546541 519.068211,316.190639 539.908609,306.059966 C560.749008,295.929292 568.811612,295.487465 579.378561,293.893538 C589.945509,292.299612 596.048304,292.965851 602.482678,292.965851 C608.917052,292.965851 613.562158,293.26702 620.107198,295.472608 C626.652238,297.678196 630.123364,298.050866 635.711638,301.72044 C641.299911,305.390014 644.612904,307.254148 651.875517,314.053695 C660.03688,321.694687 669.944605,331.853009 715.16393,372.208396 C731.665117,386.934661 765.108265,403.01363 791.073904,408.195582 C812.537732,412.47911 843.125221,413.174533 853.290373,410.758255 C866.588994,407.597146 873.424162,403.908657 888.375423,394.247973 C919.181681,374.342661 926.480438,357.081344 966.0212,345.856301 C1031.29541,327.32591 1083.11473,376.702425 1136.07578,399.072457 C1139.44749,400.496623 1143.24057,401.008651 1146.92673,401.140359 C1162.59056,401.70003 1178.28702,401.688451 1193.9513,401.140359 C1230.67954,399.855239 1266.09176,362.34212 1292.19825,345.856301 C1314.89034,331.526624 1338.58444,318.65652 1362.38434,306.059966 C1395.96855,288.284881 1435.32798,291.148748 1470,276 L1470,575 Z" id="Path" fill="#688D86"></path>
    </g>
</svg>