<?xml version="1.0" encoding="UTF-8"?>
<svg width="27px" height="27px" viewBox="0 0 27 27" version="1.1" xmlns="http://www.w3.org/2000/svg" xmlns:xlink="http://www.w3.org/1999/xlink">
    <title>file-regular-full</title>
    <g id="file-regular-full" stroke="none" fill="none" fill-rule="nonzero">
        <path d="M12.825,4.725 L8.1,4.725 C7.72875,4.725 7.425,5.02875 7.425,5.4 L7.425,21.6 C7.425,21.97125 7.72875,22.275 8.1,22.275 L18.9,22.275 C19.27125,22.275 19.575,21.97125 19.575,21.6 L19.575,11.475 L15.8625,11.475 C14.1834375,11.475 12.825,10.1165625 12.825,8.4375 L12.825,4.725 Z M18.7354687,9.45 L14.85,5.56453125 L14.85,8.4375 C14.85,8.99859375 15.3014062,9.45 15.8625,9.45 L18.7354687,9.45 Z M5.4,5.4 C5.4,3.91078125 6.61078125,2.7 8.1,2.7 L13.7320313,2.7 C14.4492188,2.7 15.136875,2.98265625 15.643125,3.48890625 L20.8110937,8.66109375 C21.3173437,9.16734375 21.6,9.855 21.6,10.5721875 L21.6,21.6 C21.6,23.0892188 20.3892188,24.3 18.9,24.3 L8.1,24.3 C6.61078125,24.3 5.4,23.0892188 5.4,21.6 L5.4,5.4 Z" id="Shape" fill="#A8E4FF"></path>
    </g>
</svg>