<?xml version="1.0" encoding="UTF-8"?>
<svg width="58px" height="55px" viewBox="0 0 58 55" version="1.1" xmlns="http://www.w3.org/2000/svg" xmlns:xlink="http://www.w3.org/1999/xlink">
    <title>sun</title>
    <g id="Page-1" stroke="none" stroke-width="1" fill="none" fill-rule="evenodd">
        <g id="MacBook-Air-13&quot;" transform="translate(-1363, -19)">
            <g id="sun" transform="translate(1361, 15)">
                <path d="M33.9954649,62 C22.6515488,62 11.3257744,62 0,62 C0,41.3333333 0,20.6666667 0,0 C21.3333333,0 42.6666667,0 64,0 C64,20.6666667 64,41.3333333 64,62 C54.0045351,62 44.0090703,62 33.9954649,62 M29.1052207,49.0273757 C29.7227271,49.108371 30.3447421,49.1395699 30.9664824,49.1439867 C31.5217457,49.1473115 32.0776555,49.1200046 32.6326132,49.0935555 C33.4424891,49.0549615 34.2417247,48.9364666 35.0362568,48.7838486 C37.05682,48.395724 38.9555609,47.7026085 40.7354822,46.7136678 C42.6557894,45.6467277 44.3266945,44.2969905 45.7496368,42.6679296 C47.0649624,41.1620712 48.0946978,39.4959292 48.8404372,37.6693093 C49.2715198,36.6134112 49.5918235,35.5278862 49.806211,34.4138012 C49.9679129,33.5735063 50.0749318,32.7260846 50.0958581,31.8723305 C50.1106771,31.2676013 50.0891617,30.6617607 50.0723055,30.0567082 C50.055746,29.4622687 49.9743702,28.8728198 49.8744508,28.2868235 C49.6289505,26.8470434 49.2121023,25.4537807 48.6104689,24.1112759 C47.7194808,22.123111 46.4919926,20.346239 44.935321,18.776546 C43.9171848,17.7498924 42.7846735,16.8527164 41.5434781,16.0809434 C40.3487059,15.3380346 39.0827797,14.728975 37.7429626,14.2634142 C36.3181025,13.7683025 34.852466,13.4375312 33.3428709,13.2829672 C32.5666476,13.20349 31.7897202,13.1710117 31.009573,13.1788938 C30.3804741,13.1852505 29.7543049,13.2228281 29.128986,13.2881121 C28.4135465,13.3628037 27.7061809,13.4799189 27.0053567,13.6336536 C25.2865115,14.0107066 23.6571313,14.609992 22.1157681,15.4282918 C20.4664713,16.3038931 18.9886931,17.3904302 17.6792247,18.6877393 C16.8589531,19.5003977 16.1261692,20.3781436 15.4777827,21.3209938 C14.8594115,22.2202003 14.3297903,23.1645316 13.8921563,24.1556381 C13.3316072,25.4251046 12.9265984,26.7377333 12.6823061,28.0961059 C12.5297852,28.9441826 12.4430527,29.7981796 12.4153081,30.657237 C12.3866036,31.545953 12.434381,32.4319602 12.5448488,33.3153475 C12.6387306,34.0661089 12.7778298,34.8087589 12.9715944,35.5412988 C13.3698869,37.0470642 13.9580266,38.4822762 14.7461391,39.8422947 C15.5430518,41.2175134 16.5116413,42.4719679 17.6493277,43.6075429 C18.2390663,44.1961889 18.870859,44.7411995 19.5386462,45.248288 C20.7747064,46.1869125 22.1140519,46.9641589 23.5547296,47.5815824 C24.6323585,48.0434171 25.7464237,48.4046108 26.8967412,48.662552 C27.6145435,48.8235117 28.3386458,48.950606 29.1052207,49.0273757 M2.45286509,30.4702296 C2.03424862,31.0691675 2.20497224,31.9395922 2.94937237,32.3315051 C3.55764764,32.6517469 4.14990594,32.9996632 4.74972818,33.3345536 C5.99106257,34.0276079 7.23272192,34.7201339 8.47421355,35.4129346 C8.93853413,35.6720484 9.4009852,35.9342703 9.86765032,36.1894774 C10.1752752,36.3577139 10.4861565,36.3448041 10.7713238,36.1465689 C11.0513293,35.9519171 11.1481862,35.6786068 11.0859154,35.3528948 C11.000351,34.9053368 10.9104032,34.4584043 10.8344926,34.0093335 C10.7218402,33.342908 10.6598562,32.6707608 10.6353779,31.9965809 C10.6090041,31.2701832 10.6043416,30.5430143 10.6656613,29.8176414 C10.7006083,29.4042404 10.7358985,28.9899878 10.7974629,28.5797287 C10.8778533,28.0440211 10.9830032,27.5116582 11.080531,26.9783572 C11.1109229,26.8121639 11.0795234,26.6585676 11.0041365,26.5091084 C10.8355201,26.1748244 10.3330587,25.9306127 9.87169829,26.1828829 C9.60429511,26.3290989 9.33867897,26.4782983 9.07263599,26.6267708 C7.09034532,27.7330486 5.1081028,28.8394067 3.12598044,29.9459591 C2.88072513,30.0828784 2.6287017,30.212111 2.45286509,30.4702296 M46.3701105,17.7389603 C46.6718219,18.0692552 46.9796317,18.3946925 47.2738582,18.730952 C47.7469175,19.271589 48.1747626,19.8444834 48.580893,20.4325271 C48.642835,20.5222192 48.7225234,20.6068487 48.8113219,20.6724961 C49.18215,20.9466537 49.9141466,20.8581026 50.093409,20.1939971 C50.4970991,18.6984495 50.9101872,17.2052135 51.3197057,15.7111006 C51.5840552,14.746625 51.8437411,13.780946 52.1153982,12.8183456 C52.2758734,12.2497119 52.0254703,11.7123731 51.6240744,11.432215 C51.2502967,11.1713347 50.8433868,11.1231314 50.4021002,11.2353858 C49.5500638,11.4521279 48.6963046,11.6626833 47.8431521,11.8754299 C46.1252879,12.303807 44.4071579,12.7312049 42.6897277,13.1611583 C42.4931663,13.2103674 42.3193824,13.2991509 42.1995465,13.4664249 C41.9160378,13.8621601 42.0280524,14.3335662 42.4552907,14.6091733 C42.9207235,14.9094176 43.3854388,15.2122154 43.8326646,15.5362719 C44.7393796,16.1932782 45.575481,16.9267868 46.3701105,17.7389603 M13.9763997,20.3809453 C14.043983,20.2853604 14.1114089,20.1896741 14.1791726,20.0942075 C14.7360148,19.3097245 15.3515082,18.5692254 16.0224643,17.8711636 C16.5458265,17.326659 17.0973473,16.8087251 17.6807537,16.3227675 C18.4239687,15.703696 19.209022,15.1367663 20.0358937,14.6228077 C20.3341217,14.4374378 20.4673106,14.1714001 20.4110819,13.8384409 C20.3535422,13.4977126 20.1313554,13.2852724 19.7814272,13.197577 C19.1681481,13.0438825 18.5544373,12.8917473 17.9410774,12.7383454 C16.667476,12.4198161 15.3941714,12.1002051 14.1203752,11.7823826 C13.4016717,11.6030587 12.683927,11.4198345 11.9625762,11.2506927 C11.4146261,11.1222091 10.8694817,11.3333393 10.5517246,11.7775441 C10.2947658,12.1367559 10.2738704,12.5218654 10.3879732,12.9350287 C11.0312456,15.2643065 11.6670055,17.5954742 12.3061269,19.9257978 C12.3488875,20.0817098 12.386277,20.2404045 12.4470885,20.3900624 C12.5624203,20.6738927 12.7960501,20.8298808 13.1062493,20.8658654 C13.4104862,20.9011633 13.6643183,20.797243 13.8510056,20.5596997 C13.8908298,20.5090284 13.9259008,20.4549576 13.9763997,20.3809453 M30.2976058,58.4483139 C30.3749402,58.5124611 30.4462514,58.5851317 30.530568,58.6394033 C31.171359,59.0518895 32.0263672,58.8806612 32.4322518,58.2526902 C32.6890877,57.8553196 32.9309697,57.4491256 33.1781396,57.0460968 C34.0844671,55.5682975 34.9901392,54.090139 35.8961921,52.6121834 C36.1066933,52.2688182 36.3200025,51.9269912 36.5278398,51.5821639 C36.7332368,51.2413891 36.6696274,50.841931 36.3743357,50.5881226 C36.1529106,50.3978023 35.8926047,50.3672837 35.6109849,50.4181958 C35.1898894,50.4943147 34.7697217,50.5766497 34.3464782,50.6400447 C33.6182039,50.749133 32.8842497,50.8144086 32.147895,50.8425437 C31.0837696,50.8832041 30.0210061,50.8519207 28.9621488,50.7392912 C28.271759,50.6658431 27.5873193,50.5552715 26.906901,50.4207102 C26.641916,50.3683148 26.4036193,50.4346341 26.2039488,50.6131139 C25.9029749,50.8821266 25.8527295,51.2569949 26.0754035,51.6220298 C26.5525816,52.4042922 27.0329352,53.1847883 27.512011,53.9659985 C28.2443111,55.1601343 28.9751652,56.3550815 29.7099676,57.5478143 C29.8934196,57.8455961 30.089598,58.1362363 30.2976058,58.4483139 M46.9077337,44.012017 C46.8433248,44.0808675 46.7784155,44.1492955 46.7145869,44.2186404 C46.0149562,44.9786837 45.252055,45.6766208 44.4384345,46.3242924 C43.8205162,46.8161681 43.1729512,47.2700077 42.4974091,47.6874675 C42.3797256,47.7601973 42.2763207,47.8467496 42.2069958,47.9671672 C41.9350243,48.4395791 42.1870483,48.9846996 42.7422628,49.1232204 C44.617998,49.5912079 46.4936003,50.0596601 48.3693399,50.527618 C49.0939227,50.7083797 49.8184125,50.8894921 50.5436596,51.0678155 C50.7515811,51.1189347 50.9635904,51.1222477 51.1717997,51.0709468 C51.9323448,50.8835464 52.3529222,50.198705 52.1533535,49.4681364 C51.6826415,47.744993 51.20898,46.0225849 50.7362218,44.2999485 C50.5281454,43.541773 50.3219999,42.7831031 50.109685,42.0260094 C50.0149828,41.6883067 49.7702886,41.4996809 49.4127781,41.4562484 C49.0827222,41.41615 48.8143291,41.5405526 48.636329,41.8041901 C48.1181308,42.5716834 47.5456482,43.2996869 46.9077337,44.012017 M51.8096345,33.0755835 C51.7354911,33.8044068 51.618246,34.5269041 51.462771,35.243929 C51.419014,35.4457245 51.4172646,35.6440907 51.5307805,35.8310642 C51.7684595,36.2225398 52.2404735,36.3534205 52.6554307,36.1343479 C52.9196871,35.9948341 53.1784784,35.8458671 53.4391962,35.7002808 C55.2535431,34.6871411 57.0678722,33.6739719 58.8818824,32.6602808 C59.1581367,32.505907 59.4433549,32.3634224 59.7057336,32.1897326 C60.1700282,31.8823731 60.3607037,31.449149 60.2710282,30.9139231 C60.2002064,30.4912148 59.9422344,30.1974053 59.5602457,29.9846862 C57.5411086,28.8602947 55.5241683,27.7323175 53.5064617,26.6055891 C53.2197244,26.4454682 52.9363928,26.2794123 52.645262,26.1269252 C52.336469,25.9651901 52.0261214,25.9778379 51.7427411,26.1812623 C51.4725322,26.3752317 51.3713905,26.6397038 51.43719,26.95988 C51.4952656,27.2425082 51.5523314,27.5253518 51.6061907,27.8087364 C51.8028097,28.8432458 51.8882998,29.888197 51.9076318,30.9377649 C51.9205818,31.6410202 51.8827638,32.3434958 51.8096345,33.0755835 M35.9487161,9.88848515 C35.7968861,9.63927231 35.6457403,9.38967703 35.4931131,9.14090895 C34.7269035,7.8920631 33.9605079,6.64332183 33.193738,5.3947908 C32.9188102,4.94711927 32.6553775,4.49243403 32.3642977,4.05450688 C31.832483,3.25439797 30.6433997,3.25680243 30.1001342,4.0509942 C30.0077793,4.18600711 29.9264035,4.32789669 29.8409642,4.46717235 C28.9863237,5.86030247 28.1318537,7.25352766 27.2774279,8.6467761 C26.8502183,9.3433932 26.4201743,10.0384494 25.9970681,10.7373267 C25.6789988,11.2627065 26.0110013,11.8764124 26.6378149,11.9233037 C26.7435582,11.9312143 26.8540803,11.909179 26.9595424,11.888029 C28.2518491,11.6288771 29.5584365,11.4872102 30.8781888,11.4652436 C31.3369739,11.4576076 31.7966558,11.4715337 32.2552681,11.4903109 C32.6653978,11.5071052 33.0758906,11.5328422 33.4839587,11.5747291 C34.1924249,11.6474515 34.8954569,11.7557961 35.5934289,11.8956872 C35.921534,11.9614465 36.2081163,11.8693817 36.4131524,11.6080388 C36.6257263,11.3370854 36.6432624,11.0430857 36.4716885,10.7477316 C36.3077213,10.465468 36.1317739,10.1895408 35.9487161,9.88848515 M12.7559025,50.9237208 C14.3040276,50.5375613 15.8521571,50.1514228 17.4002744,49.7652336 C18.2122706,49.5626754 19.0240974,49.3594918 19.8363162,49.1577407 C20.0766192,49.0980559 20.2663026,48.9749211 20.38068,48.7616295 C20.5505355,48.4448867 20.5095685,47.9981886 20.0920139,47.7278448 C19.5823413,47.3978542 19.0758929,47.0616559 18.5867347,46.7048232 C17.3377821,45.7937635 16.231298,44.7407558 15.235759,43.5810515 C14.7605086,43.027433 14.3279711,42.4440693 13.9122721,41.8486283 C13.6050923,41.4086282 12.9611279,41.380531 12.6041932,41.78214 C12.4989792,41.9005166 12.4530719,42.042473 12.4132387,42.1882495 C12.0217258,43.6210147 11.6298983,45.0536996 11.2379114,46.4863508 C10.9588017,47.5064481 10.6788095,48.52633 10.4002976,49.5465752 C10.3178667,49.8485363 10.3478567,50.1422613 10.4924665,50.4217582 C10.7773017,50.972275 11.3977721,51.2481841 12.0254571,51.1040895 C12.2602661,51.0501856 12.4929936,50.9880244 12.7559025,50.9237208 Z" id="Shape"></path>
                <path d="M28.8172315,48.8819175 C28.0609781,48.8064378 27.3309914,48.6792241 26.607356,48.5181134 C25.4476904,48.2599301 24.3245718,47.8983973 23.2381855,47.4361291 C21.7858002,46.8181261 20.4355705,46.0401502 19.1894655,45.1006447 C18.5162516,44.5930802 17.8793246,44.047558 17.2847935,43.4583595 C16.1378617,42.3217186 15.161401,41.0660866 14.3580123,39.6895772 C13.5634952,38.3282821 12.9705759,36.891723 12.5690468,35.3845442 C12.3737075,34.6513168 12.2334779,33.9079697 12.1388332,33.1565036 C12.0274677,32.2722872 11.979302,31.3854483 12.0082398,30.4958982 C12.0362098,29.6360345 12.1236471,28.7812359 12.2774075,27.9323631 C12.523685,26.5727155 12.9319852,25.2588548 13.4970895,23.9881967 C13.9382799,22.99616 14.4722052,22.0509423 15.0956015,21.1508918 C15.7492571,20.2071566 16.487996,19.3285868 17.3149335,18.5151657 C18.6350433,17.2166389 20.1248306,16.1290819 21.7875303,15.2526588 C23.3414195,14.4335909 24.9840407,13.833743 26.7168541,13.456336 C27.4233736,13.3024571 28.1364876,13.185232 28.857741,13.1104703 C29.4881415,13.045125 30.1193993,13.0075121 30.7536106,13.0011495 C31.5400976,12.9932599 32.3233387,13.0257687 33.10587,13.1053206 C34.6277328,13.2600296 36.1052797,13.5911114 37.5417189,14.0866878 C38.8924241,14.5526855 40.1686377,15.1623168 41.3731192,15.905923 C42.6244012,16.6784204 43.7661159,17.5764385 44.7925259,18.6040558 C46.3618478,20.175222 47.5993111,21.9537619 48.4975398,23.9437929 C49.1040624,25.2875578 49.5242981,26.6821283 49.7717934,28.1232597 C49.8725248,28.7098061 49.9545619,29.2998082 49.971256,29.8948057 C49.9882492,30.5004261 50.0099394,31.1068354 49.995,31.7121322 C49.9739036,32.5666876 49.8660151,33.4149048 49.7029991,34.2559884 C49.4868693,35.371119 49.1639627,36.4576629 48.729377,37.5145521 C47.9775773,39.3428866 46.9394738,41.0105925 45.6134592,42.5178643 C44.1789534,44.1484542 42.4944697,45.4994584 40.5585572,46.5673999 C38.7641714,47.5572688 36.8500004,48.2510349 34.8130172,48.6395238 C34.0120283,48.7922851 33.2062977,48.9108912 32.3898404,48.9495214 C31.8303729,48.9759953 31.2699454,49.0033279 30.7101698,49 C30.0833769,48.995579 29.4563072,48.9643509 28.8172315,48.8819175 Z" id="Path" fill="#FFF1A8" fill-rule="nonzero"></path>
                <path d="M2.23261089,30.2838186 C2.40323703,30.0414176 2.65887191,29.9150595 2.90764167,29.7811858 C4.91816737,28.6992468 6.92881495,27.6174978 8.93951137,26.5358273 C9.20936668,26.3906573 9.47878904,26.2447766 9.75002404,26.101813 C10.2179957,25.8551541 10.7276572,26.0939337 10.8986899,26.4207821 C10.975157,26.5669168 11.0070064,26.7170966 10.976179,26.8795933 C10.8772536,27.4010319 10.770597,27.9215532 10.6890547,28.4453449 C10.6266081,28.8464785 10.5908121,29.2515167 10.5553644,29.6557223 C10.493166,30.3649605 10.4978953,31.0759548 10.524647,31.786195 C10.5494761,32.4453788 10.6123483,33.1025752 10.726615,33.7541772 C10.8036133,34.1932592 10.8948501,34.6302504 10.9816405,35.0678532 C11.0448037,35.3863203 10.9465589,35.6535513 10.662541,35.8438734 C10.3732873,36.0376992 10.0579512,36.0503218 9.74591807,35.8858274 C9.27256574,35.636297 8.80348786,35.3799078 8.33251368,35.1265575 C7.07323177,34.449167 5.81377973,33.7720451 4.55465732,33.0944067 C3.94623977,32.7669654 3.34549455,32.4267878 2.72850284,32.1136693 C1.97343564,31.7304738 1.80026558,30.8794102 2.23261089,30.2838186 Z" id="Path" fill="#FFF1A8" fill-rule="nonzero"></path>
                <path d="M46.2663861,17.7965005 C45.4899198,16.9632424 44.663841,16.2022978 43.767995,15.520717 C43.3261302,15.1845395 42.8669856,14.8704159 42.407132,14.5589413 C41.9850151,14.2730255 41.8743433,13.7839871 42.1544535,13.3734499 C42.2728529,13.1999192 42.4445536,13.1078148 42.6387588,13.0567651 C44.3356017,12.6107298 46.033136,12.1673457 47.7304077,11.7229456 C48.5733332,11.5022415 49.4168582,11.2838105 50.258681,11.0589615 C50.6946779,10.9425083 51.09671,10.9925147 51.4660071,11.2631528 C51.8625914,11.5537899 52.1099928,12.1112271 51.9514414,12.7011299 C51.6830407,13.6997353 51.4264677,14.7015342 51.165287,15.7020849 C50.7606775,17.2520833 50.3525412,18.801172 49.9536902,20.3526587 C49.7765767,21.0416043 49.0533547,21.1334675 48.6869719,20.8490554 C48.5992378,20.7809525 48.5205046,20.6931575 48.4593052,20.6001107 C48.0580431,19.9900718 47.6353267,19.395749 47.1679382,18.8348902 C46.8772386,18.4860533 46.5731185,18.1484434 46.2663861,17.7965005 Z" id="Path" fill="#FFF1A8" fill-rule="nonzero"></path>
                <path d="M13.6111368,20.502137 C13.5677002,20.5676294 13.5329826,20.6236085 13.4935596,20.6760681 C13.3087537,20.9219949 13.0574796,21.0295827 12.7563086,20.9930391 C12.4492354,20.9557845 12.21796,20.7942913 12.1037904,20.5004439 C12.0435917,20.3455043 12.006579,20.1812089 11.9642493,20.0197944 C11.3315686,17.6072282 10.7022155,15.1937882 10.0654257,12.7823049 C9.95247273,12.3545601 9.97315749,11.9558592 10.2275268,11.5839699 C10.5420817,11.1240881 11.0817325,10.9055067 11.6241607,11.0385247 C12.3382422,11.213636 13.0487539,11.4033266 13.7602147,11.5889792 C15.0211744,11.9180184 16.2816474,12.2489093 17.5424142,12.5786802 C18.149593,12.737496 18.7571192,12.8950004 19.364218,13.0541191 C19.7106199,13.1449095 19.9305676,13.3648471 19.9875274,13.7176005 C20.0431895,14.0623107 19.9113428,14.3377375 19.6161201,14.5296495 C18.7975812,15.0617469 18.0204392,15.6486848 17.2847139,16.2896048 C16.7071867,16.7927129 16.1612238,17.328926 15.6431357,17.8926474 C14.9789412,18.6153454 14.3696503,19.3819784 13.8184197,20.1941477 C13.7513388,20.2929835 13.6845923,20.3920467 13.6111368,20.502137 Z" id="Path" fill="#FFF1A8" fill-rule="nonzero"></path>
                <path d="M30.4689746,58.598726 C30.2644143,58.3124602 30.0629244,58.0378721 29.8745054,57.7565369 C29.1198083,56.6296789 28.3691664,55.500729 27.6170393,54.3725455 C27.1249925,53.6344818 26.6316333,52.8970927 26.1415356,52.1580348 C25.9128327,51.8131608 25.9644385,51.4589966 26.2735613,51.2048415 C26.4786378,51.0362192 26.7233865,50.9735628 26.9955459,51.0230643 C27.6943865,51.1501938 28.3973574,51.2546585 29.1064395,51.3240501 C30.1939653,51.430459 31.2855031,51.4600146 32.3784396,51.4215999 C33.1347311,51.3950187 33.8885572,51.3333483 34.6365494,51.230285 C35.0712522,51.1703912 35.5027959,51.0926037 35.9352926,51.0206889 C36.2245373,50.9725887 36.491891,51.0014216 36.7193111,51.1812306 C37.0225978,51.421021 37.0879294,51.798417 36.8769713,52.1203707 C36.6635068,52.4461531 36.4444223,52.7691009 36.2282218,53.093502 C35.2976375,54.4898298 34.3674444,55.8863492 33.4365781,57.2825293 C33.182716,57.6632988 32.9342852,58.0470586 32.6704954,58.4224823 C32.2536215,59.0157703 31.375464,59.1775416 30.7173235,58.7878372 C30.6307241,58.736563 30.5574822,58.667906 30.4689746,58.598726 Z" id="Path" fill="#FFF1A8" fill-rule="nonzero"></path>
                <path d="M46.7688162,43.6441095 C47.3916699,42.9161654 47.9581564,42.1624571 48.470927,41.3678646 C48.6470627,41.0949184 48.9126446,40.9661234 49.2392436,41.0076376 C49.5930095,41.0526036 49.8351408,41.2478896 49.9288511,41.5975161 C50.1389422,42.3813417 50.3429285,43.1667992 50.5488256,43.9517449 C51.0166321,45.7352052 51.4853325,47.5184293 51.9511143,49.3024146 C52.1485927,50.0587785 51.7324204,50.7678007 50.9798413,50.961818 C50.7738127,51.0149302 50.564024,51.0115002 50.3582803,50.9585761 C49.6406294,50.7739563 48.9237279,50.5864491 48.2067343,50.399305 C46.3506411,49.9148242 44.4946838,49.4298315 42.638595,48.94532 C42.0891958,48.8019082 41.8398115,48.2375402 42.1089344,47.7484482 C42.1775332,47.6237788 42.279855,47.5341704 42.3963059,47.4588727 C43.0647724,47.0266728 43.7055549,46.5568088 44.3170011,46.0475656 C45.1220997,45.3770257 45.8770104,44.6544453 46.5693131,43.8675659 C46.6324732,43.7957725 46.6967027,43.7249285 46.7688162,43.6441095 Z" id="Path" fill="#FFF1A8" fill-rule="nonzero"></path>
                <path d="M51.3983368,32.8893464 C51.4715679,32.1887892 51.5099193,31.5017121 51.4967867,30.8138725 C51.4771821,29.7873116 51.390486,28.7652661 51.1910935,27.7534336 C51.1364745,27.476261 51.0786037,27.1996173 51.0197089,26.9231845 C50.9529813,26.6100267 51.0555497,26.3513519 51.3295701,26.1616345 C51.6169477,25.9626691 51.931673,25.9502986 52.2448217,26.1084884 C52.5400591,26.2576329 52.8273873,26.4200489 53.1181693,26.5766598 C55.1643372,27.6786899 57.2097281,28.7819413 59.2573466,29.8816857 C59.6447236,30.0897419 59.9063344,30.377111 59.9781553,30.7905533 C60.0690957,31.3140468 59.8757305,31.7377745 59.4048867,32.0383965 C59.138807,32.208279 58.8495656,32.3476403 58.5694145,32.4986302 C56.7298163,33.4901007 54.8898946,34.4810608 53.049955,35.4719921 C52.7855596,35.6143871 52.5231179,35.7600886 52.2551338,35.8965443 C51.8343234,36.1108146 51.3556512,35.982803 51.1146197,35.5999087 C50.9995025,35.4170337 51.0012765,35.2230157 51.0456508,35.0256437 C51.2033189,34.3243362 51.3222178,33.6176764 51.3983368,32.8893464 Z" id="Path" fill="#FFF1A8" fill-rule="nonzero"></path>
                <path d="M36.35008,10.0871043 C36.5316809,10.3609004 36.712336,10.6215144 36.8806905,10.8881133 C37.0568551,11.1670761 37.0388498,11.4447597 36.8205881,11.700676 C36.610066,11.9475152 36.3158156,12.0344707 35.9789316,11.9723608 C35.2622841,11.8402333 34.5404413,11.7379015 33.8130189,11.669215 C33.3940323,11.6296526 32.9725561,11.6053439 32.5514527,11.5894817 C32.0805694,11.5717465 31.6085879,11.5585933 31.1375272,11.5658055 C29.7824628,11.5865531 28.4409154,11.7203579 27.1140309,11.9651276 C27.005747,11.9851039 26.8922677,12.0059163 26.783695,11.9984446 C26.14011,11.9541557 25.7992242,11.3745087 26.125804,10.8782858 C26.5602311,10.2181941 27.0017817,9.56171136 27.440422,8.90375439 C28.3177093,7.587827 29.1950421,6.27192156 30.07255,4.95610592 C30.1602754,4.82455964 30.2438285,4.6905445 30.3386545,4.56302439 C30.896456,3.81290785 32.1173552,3.81063683 32.6633995,4.56634213 C32.9622677,4.97996565 33.232749,5.40941725 33.5150329,5.83224438 C34.302319,7.01148573 35.0892208,8.19092567 35.8759317,9.37046438 C36.0326427,9.60542658 36.1878326,9.84117008 36.35008,10.0871043 Z" id="Path" fill="#FFF1A8" fill-rule="nonzero"></path>
                <path d="M12.3580612,51.7767737 C12.1126977,51.8403938 11.8827157,51.9048552 11.6506768,51.9607539 C11.0303967,52.1101808 10.4172461,51.8240615 10.1357712,51.2531726 C9.99286734,50.9633328 9.96323116,50.6587383 10.0446896,50.3456031 C10.3199159,49.2876031 10.5966049,48.2299801 10.872422,47.1721335 C11.2597845,45.6864664 11.6469895,44.2007643 12.0338837,42.7149789 C12.0732469,42.5638079 12.1186127,42.4165983 12.2225855,42.2938412 C12.5753094,41.8773704 13.2116768,41.9065073 13.5152327,42.3627899 C13.9260276,42.9802655 14.3534624,43.5852169 14.8231062,44.1593223 C15.8069007,45.3619419 16.9003313,46.4539167 18.1345498,47.3986906 C18.6179373,47.7687281 19.118411,48.1173676 19.6220709,48.4595696 C20.0346996,48.7399177 20.0751832,49.203146 19.9073316,49.53161 C19.7943036,49.7527946 19.6068579,49.8804861 19.3693897,49.9423795 C18.5667529,50.1515965 17.7645033,50.3622991 16.9620864,50.572353 C15.4322325,50.9728333 13.9023666,51.373261 12.3580612,51.7767737 Z" id="Path" fill="#FFF1A8" fill-rule="nonzero"></path>
            </g>
        </g>
    </g>
</svg>